<svg xmlns="http://www.w3.org/2000/svg" xmlns:xlink="http://www.w3.org/1999/xlink" viewBox="0 0 202.26 199.55"><defs><style>.cls-1{fill:#fff6f0;}.cls-2{fill:url(#Gradiente_sem_nome_20);}.cls-3{fill:url(#Gradiente_sem_nome_20-2);}.cls-4,.cls-6{fill:#12021c;}.cls-5{fill:#424d82;}.cls-6{stroke:#424d82;stroke-width:0.75px;}.cls-6,.cls-9{stroke-miterlimit:10;}.cls-7{fill:#2c334c;}.cls-8,.cls-9{fill:#825e4c;}.cls-9{stroke:#4f3a31;}.cls-10{fill:#878787;}.cls-11{clip-path:url(#clip-path);}.cls-12{fill:#d82323;}.cls-13{fill:#4f3a31;}.cls-14{fill:url(#Gradiente_sem_nome_38);}.cls-15{fill:#ececec;}</style><linearGradient id="Gradiente_sem_nome_20" x1="102.37" y1="64.99" x2="102.37" y2="114.87" gradientUnits="userSpaceOnUse"><stop offset="0.1" stop-color="#1d1d1b"/><stop offset="0.89" stop-color="#090909"/><stop offset="0.96" stop-color="#070707"/></linearGradient><linearGradient id="Gradiente_sem_nome_20-2" x1="109.28" y1="219.51" x2="109.28" y2="103.69" xlink:href="#Gradiente_sem_nome_20"/><clipPath id="clip-path"><polygon class="cls-1" points="155.4 57.91 127.93 56.92 129.95 63.13 135.94 64.79 155.13 64.1 155.4 57.91"/></clipPath><linearGradient id="Gradiente_sem_nome_38" x1="153.3" y1="197.61" x2="153.3" y2="129.24" gradientUnits="userSpaceOnUse"><stop offset="0.1" stop-color="#2c334c"/><stop offset="0.24" stop-color="#343c60"/><stop offset="0.43" stop-color="#3c4673"/><stop offset="0.62" stop-color="#404b7e"/><stop offset="0.83" stop-color="#424d82"/><stop offset="1" stop-color="#2c334c"/></linearGradient></defs><g id="Camada_3" data-name="Camada 3"><path class="cls-2" d="M159.59,114.87c3.42-9.05,8.71-17.14,19.61-22.35C175.34,78.78,121.63,65.32,84.48,65S25.53,75.88,25.53,75.88c20.95,7.35,34.29,26.4,43.33,36.49Z"/><polygon class="cls-3" points="52.94 197.36 37.84 128.57 81.98 103.69 127.28 103.69 173.75 119.14 180.72 194.82 163.29 219.51 79.36 219.51 52.94 197.36"/><polygon class="cls-4" points="98.32 78.02 136.21 77.6 135.38 106.8 94.57 107.79 98.32 78.02"/><polygon class="cls-4" points="73.96 115.91 80.83 103.42 100.61 97.17 136.83 97.17 155.78 108.62 160.15 116.95 121.64 122.78 73.96 115.91"/><polygon class="cls-5" points="111.75 116.69 129.13 107.42 160.15 116.95 132.04 121.37 111.75 116.69"/><polygon class="cls-5" points="118.51 83.78 128.11 115.49 134.26 114.35 124.17 82.6 118.51 83.78"/><polygon class="cls-5" points="155.32 83.78 145.73 115.49 139.58 114.35 149.66 82.6 155.32 83.78"/><circle class="cls-6" cx="121.27" cy="47.3" r="37.86"/><path class="cls-4" d="M127.25,24s-75.59,1.24-94,46.44,23.33,52.36,29.27,36.66C70.3,86.6,83.05,50.47,126,46.48Z"/><path class="cls-7" d="M28.61,90.7c-.5,17.83,25.37,24.51,35.31,12.75l.56.82-3.43,6.86c-9.26,19.75-39.3,4.87-34.87-14.27l1.22-7.08L28.66,89Z"/><path class="cls-7" d="M38.18,107.59s14.14-38.89,39.3-55.8l3,4.08s-22.18,18-35.32,55Z"/><path class="cls-4" d="M131.26,38.74S74.64-11.37,30.55,9.57,12.44,64,27.41,56.38c19.58-9.9,53.37-27.94,87.74-1.93Z"/><path class="cls-7" d="M13.46,21.37C1.06,34.19,15.64,56.58,30.91,54.61l-.14,1L23.6,58.34C3.45,66.66-8.68,35.41,7.51,24.28l5.69-4.4,1.44.28Z"/><path class="cls-7" d="M9.12,40.29S45.81,21.14,75.78,25.64l-.57,5S46.69,29,12,47.42Z"/><path class="cls-4" d="M126.53,34.43s-69.84-29-104.72,5.18.56,57.32,12.26,45.29C49.36,69.17,75.44,41.11,116.4,54.53Z"/><path class="cls-5" d="M9.49,56.34C1.93,72.49,23,88.92,36.8,82.09l.19,1L31.11,88C14.76,102.42-6.88,76.81,4.8,61l4-6,1.46-.2Z"/><path class="cls-5" d="M11.54,75.63S40,45.59,69.81,40.09L70.89,45S43.38,52.7,16.58,81.44Z"/><path class="cls-8" d="M114.56,43.32V80.25l31.2,15.83h14.05l2.05-27.41L158.33,57l1.48-8.48C159.81,31.91,114.56,12,114.56,43.32Z"/><polyline class="cls-9" points="118.93 66.93 126.53 63.6 138.81 70.05 144.12 81.19 142.87 91.91"/><polygon class="cls-10" points="112.35 68.93 124.71 63.23 124.71 45.12 113.11 38.64 100.97 45.12 100.97 63.23 112.35 68.93"/><polygon class="cls-10" points="118.93 63.81 118.93 77.13 145.27 91.29 160.67 91.29 161.82 97.12 145.26 97.12 112.06 80.67 108.42 65.47 118.93 63.81"/><polygon class="cls-10" points="156.25 93.92 159.14 90.09 160.58 86.34 162.44 93.37 165.36 98.37 156.2 98.37 156.25 93.92"/><polygon class="cls-1" points="155.4 57.91 127.93 56.92 129.95 63.13 135.94 64.79 155.13 64.1 155.4 57.91"/><g class="cls-11"><ellipse class="cls-4" cx="151.97" cy="57.21" rx="7.14" ry="1.62" transform="translate(93.96 208.88) rotate(-89.7)"/><path class="cls-12" d="M151.12,59c-.08,2,.27,3.66.77,3.68s1-1.6,1.06-3.61-.39,1.44-.89,1.42S151.2,57,151.12,59Z"/><ellipse class="cls-1" cx="153.01" cy="58.75" rx="2.04" ry="1.12" transform="matrix(0.09, -1, 1, 0.09, 81.34, 206.16)"/></g><polygon class="cls-4" points="155.68 55.98 132.69 45.86 128.96 49.82 131.48 41.66 155.68 55.98"/><polygon class="cls-8" points="157.91 57.04 160.83 59.07 163.33 65.21 165.51 66.98 163.48 71.98 159.27 71.77 157.91 57.04"/><path class="cls-13" d="M156.12,80.72l4.9-.83s2.9-1.88.26-3.47S156.12,80.72,156.12,80.72Z"/><polygon class="cls-4" points="160.74 79.84 153.26 82.01 160.25 78.99 160.74 79.84"/><path class="cls-5" d="M155.56,31.24s-22.27,18.41-46.31,20.91-32.5.2-33.26-4.06,3-3.75,4.37-6.87S87.23,6.4,99.25,3.74C120.47-.94,160.78-8.12,155.56,31.24Z"/><path class="cls-14" d="M137.82,197.61c-15.81,0-28.81-16-31.79-30.81-2.94-14.65,3.47-26.81,17.15-32.54a60.51,60.51,0,0,1,23.69-5c9.68,0,19.65,2.44,30.46,7.46,19,8.85,26.23,27.69,23.3,40.92-2.37,10.75-11,17.16-23.1,17.16a130.74,130.74,0,0,1-18.63-1.85C157.46,194.2,152.26,197.61,137.82,197.61Z"/><path class="cls-7" d="M146.87,130.24c8.86,0,18.71,2.11,30,7.37,30.16,14,31.89,56.17.62,56.17a133.77,133.77,0,0,1-19-1.93s-3.67,4.76-20.74,4.76c-26,0-48.08-47.27-14.25-61.42a59.31,59.31,0,0,1,23.3-4.95m0-2h0a61.54,61.54,0,0,0-24.07,5.1C108.64,139.27,102,151.85,105.05,167s16.45,31.61,32.77,31.61c13.69,0,19.34-3,21.37-4.62a130.1,130.1,0,0,0,18.34,1.79c12.6,0,21.6-6.71,24.08-17.94,3-13.62-4.33-33-23.86-42-10.95-5.09-21.05-7.56-30.88-7.56Z"/><ellipse class="cls-7" cx="138.46" cy="159.68" rx="14.66" ry="13.06"/><ellipse class="cls-7" cx="127.96" cy="152.89" rx="11.07" ry="9.86"/><ellipse class="cls-15" cx="138.07" cy="158.6" rx="9.8" ry="8.38"/><ellipse class="cls-15" cx="127.16" cy="152.55" rx="5.07" ry="4.34"/><ellipse class="cls-7" cx="119.97" cy="140.83" rx="4.63" ry="2.09" transform="translate(-57.6 88.92) rotate(-33.28)"/><polygon class="cls-5" points="98 146.88 117.53 122.19 112.18 113.56 60.32 113.56 32.84 130.25 30.34 147.09 98 146.88"/><polygon class="cls-5" points="87.39 130.25 32.84 130.25 19.06 143.34 19.06 197.68 32.84 213.18 87.39 213.18 102 197.68 102 143.34 87.39 130.25"/><path class="cls-7" d="M42.14,196.09a5.59,5.59,0,0,1-3.19-.82,5.07,5.07,0,0,1-1.85-2.37,13.33,13.33,0,0,1-.87-3.78,50.55,50.55,0,0,1-.23-5.05V166.8a43,43,0,0,1,.49-7.22,7.73,7.73,0,0,1,1.78-4.16A4.9,4.9,0,0,1,42,154.08a4.76,4.76,0,0,1,3.2,1,6,6,0,0,1,1.71,3.32,28.24,28.24,0,0,1,.53,6.16v1.94H44v-1.24a44,44,0,0,0-.18-4.69,3.15,3.15,0,0,0-.7-2,2.19,2.19,0,0,0-1.49-.46,1.5,1.5,0,0,0-1.47.87,7,7,0,0,0-.52,2.69c0,1.22-.08,2.81-.08,4.75v4.79a4.3,4.3,0,0,1,1.27-.87A4,4,0,0,1,42.6,170,4.08,4.08,0,0,1,46,171.41a8.41,8.41,0,0,1,1.53,4.14,50.24,50.24,0,0,1,.39,6.86v1.36a50.7,50.7,0,0,1-.36,6.44A8.69,8.69,0,0,1,46,194.54,4.55,4.55,0,0,1,42.14,196.09Zm-.09-4.16a1.83,1.83,0,0,0,1.57-.67,4.52,4.52,0,0,0,.67-2.19c.1-1,.15-2.33.15-4v-3c0-2,0-3.61-.13-4.81a6,6,0,0,0-.63-2.58,1.71,1.71,0,0,0-1.56-.78,2.89,2.89,0,0,0-1.22.27,6.47,6.47,0,0,0-1.3.82v9.92a33.82,33.82,0,0,0,.2,4.06,5.12,5.12,0,0,0,.73,2.29A1.78,1.78,0,0,0,42.05,191.93Z"/><path class="cls-7" d="M52.52,195.6v-2.29a28.12,28.12,0,0,1,.3-4.29,23.69,23.69,0,0,1,1-4c.49-1.4,1.14-3,2-4.9l3-6.7a11.49,11.49,0,0,0,.67-1.95,19.31,19.31,0,0,0,.42-2.09q.15-1.07.21-2.16c0-.72,0-1.44,0-2.15a39.91,39.91,0,0,0-.18-4.44,3.87,3.87,0,0,0-.61-2,1.51,1.51,0,0,0-1.18-.48,1.61,1.61,0,0,0-1.24.51,3.94,3.94,0,0,0-.7,2.05A35.66,35.66,0,0,0,56,165.4v5.34H52.3v-2.89a63.24,63.24,0,0,1,.37-7.5,8.92,8.92,0,0,1,1.66-4.67,4.94,4.94,0,0,1,4.09-1.6,3.92,3.92,0,0,1,3.28,1.46,8.74,8.74,0,0,1,1.57,4,35.38,35.38,0,0,1,.43,5.87,34,34,0,0,1-.2,3.78,22.2,22.2,0,0,1-.64,3.36,23.24,23.24,0,0,1-1.17,3.29l-2.92,6.72q-1,2.34-1.56,3.81a14.67,14.67,0,0,0-.74,2.69,17.63,17.63,0,0,0-.2,2.91h6.94v3.62Z"/><polygon class="cls-7" points="21.91 197.78 32.32 196.12 32.94 210.59 21.91 197.78"/><polygon class="cls-7" points="88.22 210.59 98.53 199.55 88.84 196.01 88.22 210.59"/><polygon class="cls-7" points="35.76 198.3 85.62 198.3 85.62 210.69 35.65 210.69 35.76 198.3"/><polygon class="cls-7" points="90.2 193.68 90.41 154.63 99.88 153.68 99.88 196.01 90.2 193.68"/><polygon class="cls-7" points="32.01 193.86 32.01 154.28 21.18 153.33 21.18 196.01 32.01 193.86"/><polygon class="cls-7" points="22.85 150.52 23.68 145.42 20.77 143.55 97.38 143.55 95.82 146.56 97.8 150.94 91.55 152.39 88.32 148.34 33.15 148.34 32.63 151.77 22.85 150.52"/><polygon class="cls-7" points="111.64 115.13 116.01 122.41 99.77 141.34 89.16 141.34 96.76 138.76 93.84 133.24 111.64 115.13"/></g></svg>