<svg xmlns="http://www.w3.org/2000/svg" xmlns:xlink="http://www.w3.org/1999/xlink" viewBox="0 0 286.21 567.21"><defs><style>.cls-1,.cls-27{fill:#825e4c;}.cls-2{fill:#fff6f0;}.cls-25,.cls-3{fill:#12021c;}.cls-4{fill:#131312;}.cls-5{fill:url(#Gradiente_sem_nome_20);}.cls-6{fill:url(#Gradiente_sem_nome_20-2);}.cls-7{fill:url(#Gradiente_sem_nome_20-3);}.cls-8{fill:url(#Gradiente_sem_nome_20-4);}.cls-9{fill:url(#Gradiente_sem_nome_20-5);}.cls-10{fill:#424d82;}.cls-11{fill:#2c334c;}.cls-12{fill:#1d1d1b;}.cls-13{fill:url(#Gradiente_sem_nome_28);}.cls-14{fill:#bfcad8;}.cls-15,.cls-16{fill:none;}.cls-15{stroke:#2c334c;}.cls-15,.cls-16,.cls-25,.cls-27{stroke-miterlimit:10;}.cls-16,.cls-25{stroke:#424d82;}.cls-17{fill:url(#Gradiente_sem_nome_35);}.cls-18{fill:url(#Gradiente_sem_nome_35-2);}.cls-19{fill:url(#Gradiente_sem_nome_38);}.cls-20{fill:#ececec;}.cls-21{fill:url(#Gradiente_sem_nome_35-3);}.cls-22{fill:url(#Gradiente_sem_nome_20-6);}.cls-23{fill:url(#Gradiente_sem_nome_35-4);}.cls-24{fill:#878787;}.cls-25{stroke-width:0.75px;}.cls-26{clip-path:url(#clip-path);}.cls-27{stroke:#4f3a31;}.cls-27,.cls-28{opacity:0.25;}.cls-29{fill:#4f3a31;}.cls-30{clip-path:url(#clip-path-2);}.cls-31{fill:#d82323;}.cls-32{clip-path:url(#clip-path-3);}</style><linearGradient id="Gradiente_sem_nome_20" x1="154.17" y1="61.24" x2="154.17" y2="102.02" gradientUnits="userSpaceOnUse"><stop offset="0.1" stop-color="#1d1d1b"/><stop offset="0.89" stop-color="#090909"/><stop offset="0.96" stop-color="#070707"/></linearGradient><linearGradient id="Gradiente_sem_nome_20-2" x1="160.34" y1="185.52" x2="160.34" y2="90.83" xlink:href="#Gradiente_sem_nome_20"/><linearGradient id="Gradiente_sem_nome_20-3" x1="171.62" y1="173.06" x2="171.62" y2="289.71" xlink:href="#Gradiente_sem_nome_20"/><linearGradient id="Gradiente_sem_nome_20-4" x1="137.36" y1="402.95" x2="137.36" y2="262.11" xlink:href="#Gradiente_sem_nome_20"/><linearGradient id="Gradiente_sem_nome_20-5" x1="201.45" y1="406.53" x2="201.45" y2="260.62" xlink:href="#Gradiente_sem_nome_20"/><linearGradient id="Gradiente_sem_nome_28" x1="29.35" y1="151.64" x2="56.62" y2="59.47" gradientUnits="userSpaceOnUse"><stop offset="0" stop-color="#424d82"/><stop offset="0.88" stop-color="#424d82" stop-opacity="0"/></linearGradient><linearGradient id="Gradiente_sem_nome_35" x1="117.06" y1="404.48" x2="117.06" y2="259.72" gradientUnits="userSpaceOnUse"><stop offset="0" stop-color="#2c334c"/><stop offset="0.31" stop-color="#353e62"/><stop offset="0.73" stop-color="#3e4979"/><stop offset="1" stop-color="#424d82"/></linearGradient><linearGradient id="Gradiente_sem_nome_35-2" x1="232.21" y1="404.48" x2="232.21" y2="259.72" xlink:href="#Gradiente_sem_nome_35"/><linearGradient id="Gradiente_sem_nome_38" x1="179.99" y1="172.99" x2="179.99" y2="109.95" gradientUnits="userSpaceOnUse"><stop offset="0.1" stop-color="#2c334c"/><stop offset="0.24" stop-color="#343c60"/><stop offset="0.43" stop-color="#3c4673"/><stop offset="0.62" stop-color="#404b7e"/><stop offset="0.83" stop-color="#424d82"/><stop offset="1" stop-color="#2c334c"/></linearGradient><linearGradient id="Gradiente_sem_nome_35-3" x1="178.99" y1="242.61" x2="178.99" y2="174.06" xlink:href="#Gradiente_sem_nome_35"/><linearGradient id="Gradiente_sem_nome_20-6" x1="144.89" y1="210.06" x2="215.74" y2="210.06" xlink:href="#Gradiente_sem_nome_20"/><linearGradient id="Gradiente_sem_nome_35-4" x1="180.32" y1="239.17" x2="180.32" y2="184.4" xlink:href="#Gradiente_sem_nome_35"/><clipPath id="clip-path"><path class="cls-1" d="M190.19,66.31l-6,11L164.15,86.1l-26.39-4.81-4.89-16.64,6-31.93s8.37-11.64,20.89,4.36c36.59-13,33.95,7.4,33.95,7.4Z"/></clipPath><clipPath id="clip-path-2"><path class="cls-2" d="M135.45,50.12s2.54-3.66,5.15-3c9.16,2.29,11.8,9.06,11.8,9.06l-.92,5.4-13.1-1.75L135,56.31Z"/></clipPath><clipPath id="clip-path-3"><path class="cls-2" d="M163.89,58s10.85-5,19.6-2.56c2.93.83,2.74,5,2.74,5l-2.36,4.79-5,.64-15.45-2.81Z"/></clipPath></defs><g id="Camada_2" data-name="Camada 2"><path class="cls-3" d="M228.94,296.66H105.45L88.09,399.38c50.71,47,103.43,47.41,158.21,0Z"/><polygon class="cls-4" points="201.96 188.14 236 200.74 247.57 171.8 239.75 130.95 243.15 107.46 197.31 95.21 189.02 136.74 201.96 188.14"/><polygon class="cls-3" points="207.15 187.46 235.75 199.46 225.53 216.82 191.83 217.34 197.96 190.53 207.15 187.46"/><path class="cls-5" d="M197,102c2.56-7.4,6.53-14,14.69-18.27-2.89-11.23-43.11-22.24-70.93-22.5s-44.14,8.89-44.14,8.89c15.69,6,25.68,21.59,32.44,29.83Z"/><polygon class="cls-6" points="102.75 167.42 87.32 111.18 132.44 90.83 178.74 90.83 226.24 103.46 233.36 165.34 215.55 185.52 129.77 185.52 102.75 167.42"/><polygon class="cls-7" points="123.53 173.06 114.03 262.11 138.08 289.71 211.1 289.71 229.21 260.62 215.55 178.4 123.53 173.06"/><polygon class="cls-8" points="114.03 262.11 105.45 295.72 96.77 399.89 163.66 402.95 174.38 309 177.96 276.82 114.03 262.11"/><polygon class="cls-9" points="229.21 260.62 237.7 300.31 232.6 406.53 178.47 405 165.19 326.36 172.85 278.36 229.21 260.62"/><polygon class="cls-3" points="149 69 179.98 68.66 184.57 94.36 145.93 93.34 149 69"/><polygon class="cls-3" points="129.08 99.97 134.7 89.76 150.87 84.66 180.49 84.66 195.98 94.02 199.55 100.83 168.06 105.59 129.08 99.97"/><polygon class="cls-10" points="145.93 99.76 166.95 93.04 192.23 99.68 169.34 104.44 145.93 99.76"/><polygon class="cls-10" points="142.95 83.72 153.06 99.63 158.7 98.95 148.15 83.02 142.95 83.72"/><polygon class="cls-10" points="184.51 80.76 176.67 99.63 171.63 98.95 179.88 80.06 184.51 80.76"/><polygon class="cls-11" points="117.36 180.31 127.92 169.25 134.89 178.27 132.17 222.19 112.77 229.68 119.57 196.31 117.36 180.31"/><polygon class="cls-11" points="199.7 104.47 239.75 115.8 238.21 130.95 243.32 133.51 244.47 113.68 247.4 103.46 196.98 92.36 196.72 94.53 198.94 97.28 199.7 104.47"/><polygon class="cls-10" points="197.36 92.8 197.32 94.41 199.66 97.5 200.34 103.08 240.38 114.7 239.53 122.34 242.33 120.67 242.65 113.2 243.68 105.47 197.36 92.8"/><path class="cls-11" d="M199.73,103l.26-2.72.5.16a.66.66,0,0,1,.32.18.63.63,0,0,1,.14.31,1.3,1.3,0,0,1,0,.4l-.11,1.2a1.43,1.43,0,0,1-.1.43.33.33,0,0,1-.2.2.54.54,0,0,1-.33,0Zm.34-.16.16,0a.23.23,0,0,0,.14,0,.18.18,0,0,0,.1-.12.85.85,0,0,0,.06-.29l.12-1.25a.84.84,0,0,0,0-.38.26.26,0,0,0-.18-.17l-.16,0Z"/><path class="cls-11" d="M201.68,103.59a.64.64,0,0,1-.31-.18.63.63,0,0,1-.14-.32,1.83,1.83,0,0,1,0-.47l.11-1.19a1.39,1.39,0,0,1,.09-.4.38.38,0,0,1,.19-.22.5.5,0,0,1,.34,0,.59.59,0,0,1,.25.13.55.55,0,0,1,.15.2.76.76,0,0,1,0,.27,1.24,1.24,0,0,1,0,.33l-.11,1.19a2,2,0,0,1-.09.44.36.36,0,0,1-.52.21Zm0-.27a.17.17,0,0,0,.14,0,.26.26,0,0,0,.08-.15,1.82,1.82,0,0,0,0-.31l.12-1.22a1.08,1.08,0,0,0,0-.37.19.19,0,0,0-.15-.17.15.15,0,0,0-.19.07.76.76,0,0,0-.08.34l-.12,1.22c0,.14,0,.24,0,.32a.31.31,0,0,0,.05.19A.25.25,0,0,0,201.71,103.32Z"/><path class="cls-11" d="M202.62,103.84l.26-2.71.24.07.45,2,0-.8.1-1.06.28.08-.26,2.72-.23-.07-.42-2-.05.69-.11,1.18Z"/><path class="cls-11" d="M204.28,104.34l.24-2.45-.3-.09,0-.26.88.26,0,.27-.28-.08-.23,2.44Z"/><path class="cls-11" d="M205.88,104.82l.26-2.72.57.17a.81.81,0,0,1,.31.17.47.47,0,0,1,.11.27,1.85,1.85,0,0,1,0,.4.84.84,0,0,1-.09.38.22.22,0,0,1-.21.14.23.23,0,0,1,.12.1.93.93,0,0,1,.06.18,2.54,2.54,0,0,1,0,.3c0,.12,0,.27,0,.46v.07a.41.41,0,0,0,0,.11s0,.08,0,.12v.17l-.31-.09v-.2s0-.11,0-.19a1.66,1.66,0,0,0,0-.24q0-.14,0-.3a1,1,0,0,0,0-.24.19.19,0,0,0-.05-.13.35.35,0,0,0-.15-.08l-.18-.07-.13,1.31Zm.47-1.45.2.06a.17.17,0,0,0,.14,0s.06-.05.07-.12a1.41,1.41,0,0,0,.05-.3v0a1.33,1.33,0,0,0,0-.27.2.2,0,0,0,0-.14.3.3,0,0,0-.14-.07l-.2-.06Z"/><path class="cls-11" d="M207.32,105.25l.26-2.72.8.24,0,.27-.48-.15-.09.93.46.14,0,.26-.46-.13-.09,1,.49.14,0,.27Z"/><path class="cls-11" d="M208.47,105.59l.26-2.71.36.11.21,2.29.6-2,.37.11-.26,2.71-.27-.08.1-1,.12-1-.6,1.92-.23-.07-.22-2.17-.07,1-.1,1Z"/><path class="cls-11" d="M211,106.36a.67.67,0,0,1-.31-.18.63.63,0,0,1-.14-.32,1.79,1.79,0,0,1,0-.47l.12-1.19a1.41,1.41,0,0,1,.08-.4.42.42,0,0,1,.19-.22.45.45,0,0,1,.34,0,.58.58,0,0,1,.26.13.56.56,0,0,1,.14.2,1.07,1.07,0,0,1,.06.27c0,.1,0,.21,0,.32l-.12,1.2a1.26,1.26,0,0,1-.09.44.35.35,0,0,1-.19.22A.44.44,0,0,1,211,106.36Zm0-.27a.14.14,0,0,0,.13,0,.24.24,0,0,0,.08-.15,1.66,1.66,0,0,0,.05-.31l.11-1.22a1.12,1.12,0,0,0,0-.37.22.22,0,0,0-.15-.17.18.18,0,0,0-.2.06,1.4,1.4,0,0,0-.08.35l-.11,1.22a2,2,0,0,0,0,.32.43.43,0,0,0,.05.19A.28.28,0,0,0,211,106.09Z"/><path class="cls-11" d="M212.18,106.7l-.19-2.85.3.09.07,1.2.06,1.06h0l.23-1,.26-1.1.3.09-.66,2.59Z"/><path class="cls-11" d="M213.24,107l.25-2.72.81.24,0,.27-.49-.15-.08.93.46.14,0,.26-.46-.14-.09,1,.49.15,0,.27Z"/><path class="cls-11" d="M215.57,107.75a.8.8,0,0,1-.26-.14.64.64,0,0,1-.14-.22,1.16,1.16,0,0,1,0-.28c0-.1,0-.21,0-.34l0-.26.3.09,0,.28a1.43,1.43,0,0,0,0,.42.2.2,0,0,0,.16.17c.07,0,.11,0,.14,0a.18.18,0,0,0,.07-.12,1.43,1.43,0,0,0,0-.26.72.72,0,0,0,0-.33,1.05,1.05,0,0,0-.15-.3l-.16-.23a1.59,1.59,0,0,1-.13-.22,1.12,1.12,0,0,1-.11-.25.86.86,0,0,1,0-.28,1.4,1.4,0,0,1,.08-.35.32.32,0,0,1,.18-.18.51.51,0,0,1,.32,0,.71.71,0,0,1,.26.14.44.44,0,0,1,.13.2.86.86,0,0,1,0,.28,1.79,1.79,0,0,1,0,.32l0,.16-.3-.09,0-.18a1.38,1.38,0,0,0,0-.28.42.42,0,0,0,0-.18.18.18,0,0,0-.12-.09.15.15,0,0,0-.13,0,.15.15,0,0,0-.08.09.77.77,0,0,0,0,.2.51.51,0,0,0,0,.18.52.52,0,0,0,.06.16l.12.18.16.25a1.77,1.77,0,0,1,.21.41,1,1,0,0,1,0,.47,1.2,1.2,0,0,1-.08.37.33.33,0,0,1-.18.2A.46.46,0,0,1,215.57,107.75Z"/><path class="cls-11" d="M216.9,108.14a.52.52,0,0,1-.3-.19.63.63,0,0,1-.14-.33,1.79,1.79,0,0,1,0-.47l.11-1.13a2.69,2.69,0,0,1,.05-.32.7.7,0,0,1,.11-.23.36.36,0,0,1,.18-.12.56.56,0,0,1,.28,0,.84.84,0,0,1,.25.13.6.6,0,0,1,.14.21,1.08,1.08,0,0,1,.05.27c0,.1,0,.21,0,.32l0,.3-.31-.09,0-.3a1.66,1.66,0,0,0,0-.39.23.23,0,0,0-.15-.18.15.15,0,0,0-.19.08,1,1,0,0,0-.08.36l-.11,1.18a2,2,0,0,0,0,.32.48.48,0,0,0,.05.2.21.21,0,0,0,.13.09.13.13,0,0,0,.18-.08,1.7,1.7,0,0,0,.08-.41l0-.3.32.09,0,.3a2,2,0,0,1-.09.44.38.38,0,0,1-.19.23A.44.44,0,0,1,216.9,108.14Z"/><path class="cls-11" d="M217.81,108.38l.26-2.71.56.17a.61.61,0,0,1,.31.17.47.47,0,0,1,.11.27,1.76,1.76,0,0,1,0,.39.93.93,0,0,1-.09.39.22.22,0,0,1-.21.13.29.29,0,0,1,.12.1.54.54,0,0,1,.06.18,2.63,2.63,0,0,1,0,.3c0,.12,0,.28,0,.46a.15.15,0,0,0,0,.07s0,.07,0,.11a.49.49,0,0,1,0,.12v.1s0,.06,0,.07l-.32-.09v-.2a1.76,1.76,0,0,1,0-.19,2.32,2.32,0,0,1,0-.24c0-.09,0-.19,0-.3a1,1,0,0,0,0-.23.17.17,0,0,0,0-.13.49.49,0,0,0-.15-.09l-.18-.06-.13,1.31Zm.46-1.45.2.06a.23.23,0,0,0,.14,0,.18.18,0,0,0,.07-.12,1.53,1.53,0,0,0,0-.31v0a1.32,1.32,0,0,0,0-.27.17.17,0,0,0-.05-.13.32.32,0,0,0-.13-.08l-.2-.06Z"/><path class="cls-11" d="M219.24,108.81l.26-2.71.8.24,0,.26-.49-.14-.09.92.46.14,0,.27-.46-.14-.1,1,.49.15,0,.26Z"/><path class="cls-11" d="M220.61,109.22l-.1-2.82.29.09,0,2.14.51-2,.26.07.11,2.18.39-2,.29.09-.57,2.62-.32-.09-.09-2.09-.5,1.91Z"/><path class="cls-11" d="M222.87,109.93a.71.71,0,0,1-.26-.14.46.46,0,0,1-.14-.22.82.82,0,0,1-.05-.28,2,2,0,0,1,0-.34l0-.26.31.09,0,.28a1.43,1.43,0,0,0,0,.42.21.21,0,0,0,.17.17.17.17,0,0,0,.14,0,.22.22,0,0,0,.07-.12c0-.07,0-.15,0-.26a.72.72,0,0,0,0-.33,1.1,1.1,0,0,0-.16-.3l-.16-.23c0-.07-.09-.14-.13-.22a1.09,1.09,0,0,1-.1-.25.65.65,0,0,1,0-.28,1.44,1.44,0,0,1,.07-.35.32.32,0,0,1,.18-.18.54.54,0,0,1,.33,0,.65.65,0,0,1,.26.14.53.53,0,0,1,.13.2,1.26,1.26,0,0,1,0,.28c0,.09,0,.2,0,.32l0,.16-.3-.09V108a1.52,1.52,0,0,0,0-.28.4.4,0,0,0,0-.18.14.14,0,0,0-.12-.09.15.15,0,0,0-.13,0,.15.15,0,0,0-.08.09,1.73,1.73,0,0,0,0,.2,1,1,0,0,0,0,.18,1.11,1.11,0,0,0,.07.16l.11.18.17.25a1.73,1.73,0,0,1,.2.41,1,1,0,0,1,0,.47,1.2,1.2,0,0,1-.08.37.33.33,0,0,1-.18.2A.43.43,0,0,1,222.87,109.93Z"/><path class="cls-11" d="M224.67,110.43l-.09-2.82.29.09,0,2.15.5-2,.26.08.11,2.17.4-2,.29.08-.58,2.62-.31-.09-.1-2.09-.49,1.91Z"/><path class="cls-11" d="M226.5,111l.26-2.72.31.1-.11,1.16.43.13.11-1.16.32.09-.26,2.72-.31-.1.12-1.29-.43-.13-.13,1.29Z"/><path class="cls-11" d="M228,111.43l.26-2.72.32.1-.26,2.71Z"/><path class="cls-11" d="M228.76,111.65l.25-2.71.32.09-.23,2.45.49.15,0,.27Z"/><path class="cls-11" d="M229.82,112l.26-2.71.8.24,0,.26-.48-.14-.09.92.46.14,0,.27-.46-.14-.09,1,.49.15,0,.26Z"/><path class="cls-11" d="M231.58,112.5l.67-2.6.38.12.18,2.85-.3-.09,0-.54-.49-.15-.12.5Zm.48-.66.41.12-.07-1.49h0Z"/><path class="cls-11" d="M233.6,113.13a.52.52,0,0,1-.3-.19.63.63,0,0,1-.14-.33,2.36,2.36,0,0,1,0-.47l.11-1.13a1.52,1.52,0,0,1,.06-.32.7.7,0,0,1,.1-.23.36.36,0,0,1,.18-.12.56.56,0,0,1,.28,0,.68.68,0,0,1,.25.14.48.48,0,0,1,.14.2,1.08,1.08,0,0,1,0,.27c0,.1,0,.21,0,.32l0,.3-.31-.09,0-.3a1.25,1.25,0,0,0,0-.39.23.23,0,0,0-.15-.18.15.15,0,0,0-.19.08,1.21,1.21,0,0,0-.08.36l-.11,1.18c0,.13,0,.24,0,.32a.48.48,0,0,0,.05.2.21.21,0,0,0,.13.09.13.13,0,0,0,.18-.08,1.6,1.6,0,0,0,.08-.41l0-.3.31.09,0,.3a2,2,0,0,1-.09.44.35.35,0,0,1-.19.23A.43.43,0,0,1,233.6,113.13Z"/><path class="cls-11" d="M234.62,113.41l.24-2.45-.3-.09,0-.27.89.27,0,.26-.28-.08-.23,2.45Z"/><path class="cls-11" d="M235.47,113.66l.26-2.71.31.09-.26,2.71Z"/><path class="cls-11" d="M236.51,114l-.18-2.85.3.09.06,1.21.06,1h0l.23-1,.26-1.1.3.09-.67,2.59Z"/><path class="cls-11" d="M237.57,114.29l.26-2.72.8.24,0,.27-.49-.15-.09.93.46.14,0,.26-.46-.13-.1,1,.49.14,0,.27Z"/><polygon class="cls-3" points="145.96 450.44 128.6 546.1 84.38 544.23 87.75 447.89 145.96 450.44"/><polygon class="cls-12" points="165.1 390.35 164.35 430.53 144.94 459.12 85.2 454.02 80.6 428.49 97.71 388.56 165.1 390.35"/><polygon class="cls-3" points="130.13 531.29 136.94 550.87 134.72 567.21 79.75 567.21 75.79 550.53 86.89 534.53 130.13 531.29"/><polygon class="cls-3" points="188.67 450.44 200.6 537.59 243.32 545.42 241.44 447.89 188.67 450.44"/><polygon class="cls-3" points="216 545.68 238.04 562.27 280.43 562.27 286.21 547.63 279.92 537.93 259.83 538.95 240.6 516.83 217.53 526.53 216 545.68"/><polygon class="cls-3" points="199.39 528.79 196.85 542.87 199.06 563.12 221.11 563.12 220.68 537.93 199.39 528.79"/><polygon class="cls-12" points="174.88 390.35 172.01 430.53 189.59 459.12 243.75 454.02 247.91 428.49 235.97 388.56 174.88 390.35"/><polygon class="cls-12" points="130.47 170.1 104.08 204.31 62.04 185.17 74.3 118.53 87.32 111.18 125.62 133.34 130.47 170.1"/><polygon class="cls-13" points="10.81 149.85 7.23 75.12 91.15 94.02 54.89 159.38 10.81 149.85"/><rect class="cls-14" x="8.85" y="152.83" width="46.55" height="9.98" transform="translate(38.5 -3.11) rotate(13.77)"/><polygon class="cls-3" points="6.81 147.85 14.38 150.06 14.21 165.63 18.89 170.14 13.53 178.82 0.68 170.82 0 163 6.81 147.85"/><polygon class="cls-3" points="15.45 170.36 21.06 154.02 31.53 156.44 31.66 158.49 41.3 161.98 38.3 178.91 27.57 180.44 15.45 170.36"/><polygon class="cls-3" points="50.47 161.34 60 162.78 52.68 181.93 40.94 184.74 35.66 175.29 44.6 171.29 50.47 161.34"/><polygon class="cls-3" points="14.47 166.87 23.83 167.12 47.83 175.04 47.49 184.66 32.34 187.38 15.74 183.55 11.74 176.14 14.47 166.87"/><polygon class="cls-3" points="30.13 177.51 51.06 173.68 93.7 183.12 108.23 199.48 104.43 219.12 71.23 226.78 44.17 217.85 39.83 203.29 29.36 197.68 21.96 182.36 30.13 177.51"/><polyline class="cls-15" points="36.08 86.1 48.81 86.1 42.45 141.69"/><polygon class="cls-16" points="42.45 141.69 10.35 86.1 74.54 86.1 42.45 141.69"/><polygon class="cls-16" points="29.31 118.94 39.38 122.32 55.62 118.87 45.37 116.19 29.31 118.94"/><polygon class="cls-16" points="17.58 102.73 47.12 100.91 68.71 106.5 37.72 109.82 17.58 102.73"/><line class="cls-15" x1="42.45" y1="141.69" x2="36.08" y2="86.1"/><polygon class="cls-10" points="97.53 285.25 92.43 298.11 102 305.93 143.62 293.7 149.23 275.68 97.53 285.25"/><polygon class="cls-3" points="115.66 244.82 105.45 251.97 94.89 286.7 107.36 295.21 149.11 279.51 154.72 258.31 115.66 244.82"/><polygon class="cls-11" points="86.04 329.93 80.94 342.79 90.51 350.61 133.53 338.23 137.75 320.36 86.04 329.93"/><polygon class="cls-3" points="105.19 302.87 93.96 296.65 83.4 331.38 95.87 339.89 137.62 324.19 147.57 285.25 105.19 302.87"/><polygon class="cls-3" points="93.45 346.02 82.47 340.91 71.66 374.53 84.13 383.04 125.87 367.34 135.32 331.34 93.45 346.02"/><polygon class="cls-17" points="163.66 259.72 135.83 384.82 81.19 404.49 70.47 389.42 74.04 374.1 87.32 379.97 127.15 362.61 151.66 259.72 163.66 259.72"/><polygon class="cls-10" points="245.75 285.25 249.29 298.11 242.65 305.93 213.81 293.7 209.91 275.68 245.75 285.25"/><polygon class="cls-3" points="233.19 244.82 240.26 251.97 247.58 286.7 238.94 295.21 210 279.51 206.11 258.31 233.19 244.82"/><polygon class="cls-11" points="253.72 329.93 257.25 342.79 250.62 350.61 220.8 338.23 217.88 320.36 253.72 329.93"/><polygon class="cls-3" points="240.44 302.87 248.23 296.65 255.54 331.38 246.9 339.89 217.97 324.19 211.06 285.25 240.44 302.87"/><polygon class="cls-3" points="248.58 346.02 256.19 340.91 263.69 374.53 255.04 383.04 226.11 367.34 219.56 331.34 248.58 346.02"/><polygon class="cls-18" points="199.91 259.72 219.21 384.82 257.08 404.49 264.51 389.42 262.03 374.1 252.83 379.97 225.22 362.61 208.23 259.72 199.91 259.72"/><path class="cls-19" d="M216.64,173c-6.37,0-9.36-3.09-10.3-4.32l-41.51-.95c-1.27,1.14-6,4.29-19.17,4.29-14.36,0-26.16-14.51-28.86-28s3.15-24.34,15.58-29.54c6.5-2.73,24-4.56,43.44-4.56,10.9,0,37.69.66,50.83,6.76,15,7,19,22.09,16.42,34C240.08,164.24,229.71,173,216.64,173Z"/><path class="cls-11" d="M175.82,111c19.52,0,40.16,1.91,50.41,6.67,27.29,12.67,18.71,54.37-9.59,54.37-7.3,0-9.77-4.3-9.77-4.3l-42.44-1s-3.32,4.3-18.77,4.3c-23.57,0-43.5-42.77-12.9-55.58,6.46-2.7,24.24-4.48,43.06-4.48m0-2v0c-19.6,0-37.21,1.86-43.83,4.63-12.9,5.4-18.94,16.87-16.17,30.67S130.8,173,145.66,173c12.58,0,17.72-2.83,19.53-4.28l40.67.93c1.33,1.54,4.59,4.33,10.78,4.33a26.68,26.68,0,0,0,18.28-6.92A30.89,30.89,0,0,0,244,150.92c2.72-12.3-1.48-27.92-17-35.11-13.32-6.19-40.28-6.86-51.25-6.86Z"/><ellipse class="cls-11" cx="146.24" cy="137.59" rx="13.27" ry="11.82"/><ellipse class="cls-11" cx="136.74" cy="131.45" rx="10.02" ry="8.92"/><ellipse class="cls-20" cx="145.88" cy="136.61" rx="8.86" ry="7.59"/><ellipse class="cls-20" cx="136.01" cy="131.14" rx="4.58" ry="3.92"/><ellipse class="cls-11" cx="227.17" cy="121.2" rx="1.89" ry="4.19" transform="matrix(0.55, -0.84, 0.84, 0.55, 1.2, 244.63)"/><ellipse class="cls-11" cx="129.51" cy="120.54" rx="4.19" ry="1.89" transform="translate(-44.9 90.82) rotate(-33.28)"/><rect class="cls-11" x="201.11" y="147.97" width="32.34" height="7.15"/><polygon class="cls-21" points="144.77 185.52 162.64 174.06 199.4 174.06 211.15 182.61 217.81 236.8 208.09 242.61 180.51 234.95 151.79 241.06 140.17 235.46 144.77 185.52"/><polygon class="cls-22" points="144.89 232.4 149.11 189.51 164.04 181.08 199.66 180.95 208.21 187.08 215.75 233.8 206.94 239.17 178.47 229.08 153.32 237.12 144.89 232.4"/><polygon class="cls-23" points="146.99 232.8 150.96 192.45 165.01 184.52 198.51 184.4 206.56 190.16 213.65 234.12 205.36 239.17 178.58 229.68 154.92 237.24 146.99 232.8"/><polygon class="cls-10" points="114.13 234.02 149.53 244.91 178.98 239.12 206.55 246.27 229.02 237.42 232.6 249.76 207.82 264.03 179.49 268.57 148.51 262.27 111.25 247.91 114.13 234.02"/><path class="cls-3" d="M149.88,38.64S191,.93,223.78,15.79s14.09,39.87,2.94,34.49C212.15,43.24,187,30.37,162,50Z"/><path class="cls-11" d="M236.55,24.27c9.31,9.3-1.15,26-12.43,24.75l.11.73,5.32,1.93c15,5.87,23.51-17.34,11.43-25.34l-4.26-3.17-1.06.23Z"/><path class="cls-3" d="M150.74,30.3S206,22.67,224.51,53.55s-11.1,40.8-17.2,30c-8-14.08-21.36-39-53.1-37Z"/><path class="cls-11" d="M230.18,67.79c2.38,12.94-15.73,20.73-24.3,13.28l-.32.66,3.28,4.61c9,13.36,29.2-.88,23.81-14.34L231,67l-1-.42Z"/><path class="cls-3" d="M150.76,33.62S205.42,4.75,236.4,29.9s3.89,46.7-6.55,37.79c-13.64-11.64-37-32.51-69.32-18.47Z"/><path class="cls-10" d="M247.7,42.58c7.37,12.58-8.54,27.55-20.28,23l-.08.81L232.5,70c14.4,10.5,30.07-12,19.37-24l-3.67-4.59-1.21,0Z"/><path class="cls-10" d="M226,41.72l1.89-5,.64.43-1.7,4.49,1,.68-.18.48Z"/><path class="cls-10" d="M228.19,43.17l1.88-5,.64.43-1.88,5Z"/><path class="cls-10" d="M230.32,44.6l1-5.59.61.42-.43,2.34-.39,2.06h0l1-1.67,1.11-1.89.61.4-2.71,4.42Z"/><path class="cls-10" d="M232.47,46l1.89-5,1.63,1.1-.18.48-1-.66-.65,1.7.94.63-.18.48-.94-.63L233.3,46l1,.67-.19.48Z"/><path class="cls-10" d="M236.8,48.94,238,43.48l.59.4-1,4.13,2.06-3.4.53.35-.81,4.24,1.84-3.54.59.39-2.53,4.54-.63-.43.8-4.06-2,3.26Z"/><path class="cls-10" d="M240.53,51.44l1.88-5,.64.44-1.88,5Z"/><path class="cls-10" d="M242.07,52.47l1.88-5,1.15.77a1.79,1.79,0,0,1,.59.57.94.94,0,0,1,.11.6,3.24,3.24,0,0,1-.2.75,1.94,1.94,0,0,1-.38.66.46.46,0,0,1-.53.09.69.69,0,0,1,.2.28.8.8,0,0,1,0,.39,2.6,2.6,0,0,1-.12.58,7.92,7.92,0,0,1-.29.86l-.05.13c0,.06-.05.13-.07.2s-.05.15-.08.22,0,.14,0,.19a.42.42,0,0,0,0,.14l-.64-.43a.4.4,0,0,1,0-.13c0-.06,0-.14.07-.24s.07-.22.12-.35.1-.28.17-.45.13-.34.2-.54a3,3,0,0,0,.14-.45.4.4,0,0,0-.05-.29,1.21,1.21,0,0,0-.28-.28l-.38-.27-.91,2.4Zm1.71-2.4.41.27a.58.58,0,0,0,.3.12c.08,0,.15-.05.23-.16a4.48,4.48,0,0,0,.25-.55v0a2.82,2.82,0,0,0,.15-.5.42.42,0,0,0,0-.3.78.78,0,0,0-.26-.25l-.4-.27Z"/><path class="cls-10" d="M245,54.42l1.88-5,1.64,1.1-.19.49-1-.67-.64,1.7.94.63-.19.49-.94-.63-.68,1.81,1,.67-.18.49Z"/><path class="cls-10" d="M247.49,58.44S222,36.14,197.36,33.93L196.85,38s23,4.17,47,25.53Z"/><polygon class="cls-24" points="131.18 64.72 133.7 63.09 138.81 79.18 164.1 84.4 183.51 75.68 189.85 62.91 194.7 65.04 187.93 79.23 164.36 89 136.87 83.68 131.18 64.72"/><ellipse class="cls-3" cx="187.9" cy="76.71" rx="1.54" ry="0.52" transform="translate(52.19 227.62) rotate(-70.24)"/><circle class="cls-25" cx="170.02" cy="39.89" r="31.91"/><path class="cls-1" d="M190.19,66.31l-6,11L164.15,86.1l-26.39-4.81-4.89-16.64,6-31.93s8.37-11.64,20.89,4.36c36.59-13,33.95,7.4,33.95,7.4Z"/><g class="cls-26"><polyline class="cls-27" points="161.45 87.55 164.41 76.67 176.21 70.03 183.43 69.97 187.45 72.71"/><polyline class="cls-27" points="147.51 28.37 146.04 36.54 150.01 44.3 171.77 47.84 181.85 40.18 182.38 31.95"/><polyline class="cls-27" points="131.79 64.99 134.15 62.82 138.5 64.08 141.7 72.57 140.15 81.97"/><g class="cls-28"><path class="cls-29" d="M175.76,81.15a2.27,2.27,0,0,1-.95-.43,1.43,1.43,0,0,1-.45-.72,3.06,3.06,0,0,1-.06-1,9.86,9.86,0,0,1,.22-1.26l1-4.22a9.26,9.26,0,0,1,.56-1.73,1.56,1.56,0,0,1,2-1,1.72,1.72,0,0,1,.94.48,1.4,1.4,0,0,1,.35.93,5.28,5.28,0,0,1-.18,1.55l-.11.47-1-.24.07-.3a8.92,8.92,0,0,0,.21-1.16.73.73,0,0,0-.11-.54.82.82,0,0,0-.44-.21.52.52,0,0,0-.51.1,1.54,1.54,0,0,0-.31.62c-.09.3-.18.68-.29,1.16l-.27,1.17a1.22,1.22,0,0,1,.44-.12,1.78,1.78,0,0,1,.56,0,1.48,1.48,0,0,1,1,.58,1.86,1.86,0,0,1,.25,1.13,9.05,9.05,0,0,1-.27,1.7l-.07.34a10.6,10.6,0,0,1-.48,1.55A1.93,1.93,0,0,1,177,81,1.67,1.67,0,0,1,175.76,81.15Zm.2-1a.65.65,0,0,0,.53-.05.92.92,0,0,0,.34-.48,7.31,7.31,0,0,0,.27-1l.17-.75a11.35,11.35,0,0,0,.23-1.19,1.24,1.24,0,0,0-.05-.67.59.59,0,0,0-.44-.3,1.1,1.1,0,0,0-.4,0,2.43,2.43,0,0,0-.45.11l-.56,2.43a6.22,6.22,0,0,0-.17,1,1.2,1.2,0,0,0,.1.61A.61.61,0,0,0,176,80.12Z"/><path class="cls-29" d="M179,81.78l.13-.57a5.3,5.3,0,0,1,.34-1,4.41,4.41,0,0,1,.54-.92c.23-.31.53-.66.89-1.06l1.31-1.42a2.67,2.67,0,0,0,.32-.43,3.58,3.58,0,0,0,.24-.48,3.52,3.52,0,0,0,.19-.51c0-.18.1-.35.14-.53a6.92,6.92,0,0,0,.19-1.09.85.85,0,0,0-.08-.53.6.6,0,0,0-.34-.2.65.65,0,0,0-.42,0,.85.85,0,0,0-.33.45,8,8,0,0,0-.33,1.13l-.3,1.3-1.16-.26.17-.71a12.24,12.24,0,0,1,.53-1.81,2.06,2.06,0,0,1,.79-1,1.84,1.84,0,0,1,1.37-.1,1.43,1.43,0,0,1,.94.6,1.94,1.94,0,0,1,.26,1.09,6.89,6.89,0,0,1-.19,1.47,7,7,0,0,1-.28.91,5.05,5.05,0,0,1-.39.77,4.5,4.5,0,0,1-.55.73L181.72,79c-.3.33-.54.6-.71.82a3.47,3.47,0,0,0-.38.6,4.1,4.1,0,0,0-.23.7l2.17.5-.2.89Z"/></g></g><polygon class="cls-24" points="188.4 62.61 191.29 47.72 196.57 41.76 201.05 47.37 198.7 63.04 191.38 67.8 188.4 62.61"/><path class="cls-2" d="M135.45,50.12s2.54-3.66,5.15-3c9.16,2.29,11.8,9.06,11.8,9.06l-.92,5.4-13.1-1.75L135,56.31Z"/><g class="cls-30"><ellipse class="cls-3" cx="142.93" cy="57.68" rx="5.84" ry="1.32" transform="translate(73.91 195.5) rotate(-85.38)"/><path class="cls-31" d="M143.49,59.18c-.08,1.65-.47,3-.88,3s-.69-1.37-.61-3,.21,1.2.62,1.22S143.57,57.54,143.49,59.18Z"/><ellipse class="cls-2" cx="142.1" cy="58.68" rx="0.91" ry="1.67"/></g><path class="cls-2" d="M163.89,58s10.85-5,19.6-2.56c2.93.83,2.74,5,2.74,5l-2.36,4.79-5,.64-15.45-2.81Z"/><g class="cls-32"><ellipse class="cls-3" cx="166.49" cy="61.38" rx="5.84" ry="1.32" transform="translate(82.66 217.78) rotate(-82.04)"/><path class="cls-31" d="M167,62.91c-.17,1.64-.64,2.93-1.06,2.89s-.6-1.41-.43-3S165.63,64,166,64,167.14,61.27,167,62.91Z"/><ellipse class="cls-2" cx="165.47" cy="62.51" rx="1.67" ry="0.91" transform="translate(93.45 224.06) rotate(-86.67)"/></g><polygon class="cls-3" points="138.81 41.1 142 39.44 154.51 51.44 142.25 35.87 138.81 41.1"/><polygon class="cls-3" points="163.83 52.72 183.61 47.23 186.17 50.87 185.08 43.97 163.83 52.72"/><path class="cls-29" d="M147.36,65.36c1.15.9,2.22,1.08,3.19.22.88,2.41,3.87,2.83,8.43,1.79.86.75,2,.67,3.22.13-.81,1.28-1.86,1.74-3.35.6-4.78,1.57-7.73,1.14-8.71-1.43C149,67.08,148.12,66.57,147.36,65.36Z"/><path class="cls-29" d="M150.68,62.87c2.28-.49,3.13-3.64,3.25-8.17C153.37,58.3,152.42,61.26,150.68,62.87Z"/><path class="cls-29" d="M147.88,76.73s-1.48-1.38-.7-2.36c1.5-1.89,9.44-1.27,10.32,2,.13.47-1.82,1.35-1.82,1.35L153,76.3,150.23,76Z"/><polygon class="cls-3" points="146.6 76.9 151.16 76.29 151.02 75.37 146.6 76.9"/><polygon class="cls-3" points="156.85 78.4 152.09 76.45 152.43 75.51 156.85 78.4"/><polygon class="cls-24" points="142.38 83.87 145.32 79.53 156.55 81.7 157.51 86.42 142.38 83.87"/><path class="cls-10" d="M201.48,34.48C180.93,19,152.22,38,137.2,37s-21.5-7.31-18.94-15.6c1.2-3.89,12.85,2.11,17.57-3C150.38,2.71,219.61-20.19,201.48,34.48Z"/><path class="cls-11" d="M201.48,34.48C180.93,19,152.22,38,137.2,37s-18.32-4.73-17.48-8.79c.41-2,10.79,8.53,17.31,6.11C149.62,29.68,208.85,14.61,201.48,34.48Z"/><path class="cls-11" d="M189.2,17.46a6.91,6.91,0,0,1-7.41,6.35c-3.86-.25-9.75-3.72-9.51-7.47s6.53-6.37,10.38-6.12A6.9,6.9,0,0,1,189.2,17.46Z"/><ellipse class="cls-20" cx="182.7" cy="17.06" rx="5.21" ry="4.42" transform="translate(153.98 198.29) rotate(-86.33)"/><polygon class="cls-10" points="65.62 144.4 69.53 148.31 96 151.97 100.8 147.61 103.28 131.29 138.3 107.46 136.77 95.89 111.4 91.12 66.64 110.53 67.49 119.04 65.62 144.4"/><polygon class="cls-11" points="69.28 118.19 68.25 111.97 102.98 115.55 136.17 99.29 137.19 106.53 106.6 126.19 104.04 118.27 102.38 130.4 101.45 118.95 70.67 115.39 69.28 118.19"/><path class="cls-11" d="M72.77,141.8a2.73,2.73,0,0,1-1.55-.6,2.56,2.56,0,0,1-.78-1.29,7.1,7.1,0,0,1-.21-1.95,22.92,22.92,0,0,1,.19-2.55l1-8.65a21.76,21.76,0,0,1,.68-3.59,3.9,3.9,0,0,1,1.14-2,2.47,2.47,0,0,1,1.93-.45,2.39,2.39,0,0,1,1.54.7,3,3,0,0,1,.66,1.77,14.34,14.34,0,0,1-.1,3.12l-.12,1-1.68-.2.07-.62a21.2,21.2,0,0,0,.19-2.36,1.63,1.63,0,0,0-.23-1,1.06,1.06,0,0,0-.72-.32.77.77,0,0,0-.79.34,3.64,3.64,0,0,0-.42,1.32c-.1.61-.21,1.41-.33,2.38l-.28,2.4a2,2,0,0,1,.69-.36,2,2,0,0,1,.88-.08,2.1,2.1,0,0,1,1.61.89,4.29,4.29,0,0,1,.51,2.17,25.87,25.87,0,0,1-.21,3.46l-.08.68a26.2,26.2,0,0,1-.57,3.21,4.52,4.52,0,0,1-1,2.08A2.29,2.29,0,0,1,72.77,141.8Zm.21-2.08a.91.91,0,0,0,.82-.25,2.14,2.14,0,0,0,.47-1.05c.11-.5.22-1.16.32-2l.18-1.53c.12-1,.19-1.81.22-2.42a3.14,3.14,0,0,0-.16-1.33.86.86,0,0,0-.73-.48,1.33,1.33,0,0,0-.63.06,3,3,0,0,0-.7.34l-.6,5a17.39,17.39,0,0,0-.14,2,2.58,2.58,0,0,0,.23,1.19A.89.89,0,0,0,73,139.72Z"/><path class="cls-11" d="M78,142.18l.14-1.14a14.81,14.81,0,0,1,.41-2.14,12.24,12.24,0,0,1,.75-2c.33-.68.75-1.45,1.28-2.34l1.89-3.18a6.25,6.25,0,0,0,.45-.94,8.67,8.67,0,0,0,.33-1,9.73,9.73,0,0,0,.24-1.07q.09-.54.15-1.08a20.24,20.24,0,0,0,.18-2.23,1.91,1.91,0,0,0-.19-1,.76.76,0,0,0-.56-.31.8.8,0,0,0-.66.17,2,2,0,0,0-.47,1,20.69,20.69,0,0,0-.39,2.33l-.32,2.68-1.85-.22.18-1.45a30.34,30.34,0,0,1,.63-3.74,4.49,4.49,0,0,1,1.11-2.24,2.49,2.49,0,0,1,2.15-.55,2,2,0,0,1,1.55.92,4.39,4.39,0,0,1,.55,2.11,18.45,18.45,0,0,1-.13,3c-.09.67-.2,1.3-.33,1.88a12.21,12.21,0,0,1-.52,1.65,12.93,12.93,0,0,1-.79,1.58L81.92,136c-.44.74-.78,1.34-1,1.81a7.93,7.93,0,0,0-.54,1.31,10.35,10.35,0,0,0-.27,1.44l3.48.42-.22,1.81Z"/><ellipse class="cls-11" cx="112.16" cy="92.77" rx="1.67" ry="0.73" transform="translate(-0.12 0.15) rotate(-0.08)"/><ellipse class="cls-11" cx="130.82" cy="96.54" rx="1.67" ry="0.73" transform="translate(-0.13 0.17) rotate(-0.08)"/><ellipse class="cls-11" cx="74.61" cy="109.9" rx="1.67" ry="0.73" transform="translate(-0.15 0.1) rotate(-0.08)"/><ellipse class="cls-11" cx="100.08" cy="112.19" rx="1.67" ry="0.73" transform="translate(-0.15 0.13) rotate(-0.08)"/><polygon class="cls-11" points="66.55 144.74 69.4 147.76 94.55 150.87 92.51 147.51 66.55 144.74"/><polygon class="cls-11" points="93.92 147.21 97.45 144.06 100.21 147 95.57 150.78 93.92 147.21"/><polygon class="cls-11" points="98.25 142.7 101.02 125.8 101.87 132.87 100.58 144.88 98.25 142.7"/></g></svg>