<svg xmlns="http://www.w3.org/2000/svg" xmlns:xlink="http://www.w3.org/1999/xlink" viewBox="0 0 162.13 197.36"><defs><style>.cls-1{fill:#12021c;}.cls-2{fill:url(#Gradiente_sem_nome_78);}.cls-3{fill:url(#Gradiente_sem_nome_3);}.cls-4{fill:#1d1d1b;}.cls-5{fill:url(#Gradiente_sem_nome_39);}.cls-6{fill:url(#Gradiente_sem_nome_13);}.cls-7{fill:url(#Gradiente_sem_nome_11);}.cls-8{fill:#d82323;}.cls-9{fill:#fff;}.cls-10{fill:#fff6f0;}.cls-11{fill:#d6dfe8;}.cls-12{clip-path:url(#clip-path);}</style><linearGradient id="Gradiente_sem_nome_78" x1="277.01" y1="159.96" x2="277.01" gradientTransform="matrix(-1, 0, 0, 1, 360.16, 0)" gradientUnits="userSpaceOnUse"><stop offset="0.26" stop-color="#aaaab2"/><stop offset="0.35" stop-color="#b0afb6"/><stop offset="0.46" stop-color="#c1bec2"/><stop offset="0.6" stop-color="#dcd7d6"/><stop offset="0.73" stop-color="#fff6f0"/></linearGradient><linearGradient id="Gradiente_sem_nome_3" x1="-7936.48" y1="104.47" x2="-7983.37" y2="160.15" gradientTransform="translate(7988.64)" gradientUnits="userSpaceOnUse"><stop offset="0.17" stop-color="#9a9c9e"/><stop offset="1" stop-color="#6a7077"/></linearGradient><linearGradient id="Gradiente_sem_nome_39" x1="-5095.5" y1="219.38" x2="-5095.5" y2="144.16" gradientTransform="translate(5178.56)" gradientUnits="userSpaceOnUse"><stop offset="0.62" stop-color="#f8fbff"/><stop offset="1" stop-color="#bfcad8"/></linearGradient><linearGradient id="Gradiente_sem_nome_13" x1="-7411.88" y1="157.8" x2="-7409.76" y2="242.86" gradientTransform="translate(7443.29 -374.88) rotate(-2.77)" gradientUnits="userSpaceOnUse"><stop offset="0" stop-color="#bfcad8"/><stop offset="0.62" stop-color="#f8fbff"/><stop offset="1" stop-color="#bfcad8"/></linearGradient><linearGradient id="Gradiente_sem_nome_11" x1="382.77" y1="223.09" x2="382.77" y2="175.16" gradientTransform="matrix(-1, 0, 0, 1, 501.27, 0)" gradientUnits="userSpaceOnUse"><stop offset="0.62" stop-color="#f8fbff"/><stop offset="1" stop-color="#f8fbff"/></linearGradient><clipPath id="clip-path"><polygon class="cls-1" points="86.36 87.33 105.47 94.55 105.54 97.64 86.38 94.26 84.73 90.27 86.36 87.33"/></clipPath></defs><g id="Camada_3" data-name="Camada 3"><path class="cls-2" d="M67.57,134l22.69,11.35c47.14,40.56,71.87-16.15,71.87-16.15C132,137,123.39,100.06,141.07,69.94c11.49-19.57-6.22-43.1-6.22-43.1C144.67,16.37,140.31,0,140.31,0,127.87,18.33,90.39,11.13,69.87,7.86S42.92,30.07,42.92,30.07c-44.74,12.66-6.87,66.82-6.87,66.82S32.56,137,4.19,121.77C4.19,121.77,24,187.13,67.57,134Z"/><polygon class="cls-3" points="75.78 112.44 32.56 164.18 2.61 165.55 0.63 142.85 8.32 133.23 0 129.97 63.05 94.12 75.78 112.44"/><polygon class="cls-4" points="64 112.2 53.15 101.22 50.47 67.78 72.43 58.07 79.45 62.29 77.28 110.54 64 112.2"/><polygon class="cls-4" points="96.3 111.95 100.64 138.37 66.68 138.37 60.81 104.92 96.3 111.95"/><path class="cls-5" d="M99.62,212.44c-27.88,0-110.17-80.85-16.19-80.85C148.77,131.59,127.5,212.44,99.62,212.44Z"/><path class="cls-6" d="M45.72,141.79C29.51,146.07,13,173,30.89,188a57.78,57.78,0,0,0,0,6.32c1,20.46,13.23,31.24,26.45,30.6S98.29,127.9,45.72,141.79Z"/><path class="cls-7" d="M94,210.64c29.42,21.65,68.66-4.47,37.68-31l-6-12.47"/><polygon class="cls-4" points="78.38 132.03 65.19 147.86 34.72 148.12 64.77 131.27 78.38 132.03"/><path class="cls-4" d="M105.21,170.28a12.09,12.09,0,0,0-1.21.07,7.81,7.81,0,0,0-5.61-2.23c-4,0-7.2,2.66-7.2,5.95,0,2.54,1.94,4.71,4.66,5.56.83,3.65,4.71,6.41,9.36,6.41,5.27,0,9.53-3.53,9.53-7.88S110.48,170.28,105.21,170.28Zm-.54,13.2c-3.85,0-7-2.59-7-5.77a4.72,4.72,0,0,1,.28-1.6h-.39a2.77,2.77,0,1,1,0-5.44,3.2,3.2,0,0,1,3.24,2.22,8,8,0,0,1,3.85-1c3.86,0,7,2.58,7,5.77S108.53,183.48,104.67,183.48Z"/><ellipse class="cls-8" cx="105.41" cy="177.04" rx="4.7" ry="3.88"/><polygon class="cls-4" points="97.45 141.31 106.25 143.35 104.98 164.16 88.89 159.18 97.45 141.31"/><polygon class="cls-4" points="114.17 141.05 114.43 160.07 126.2 169.51 125.66 151.52 114.17 141.05"/><path class="cls-9" d="M108.17,120.63l-32-11.25.14-32.08c-1.12-18.42,22.21-16.95,39.09-2.75l-2,17.86,1.58,3.88,3,1.1-2.59,10.52-.54,2.5-1.63,1.15.41,1.57-1.56,1Z"/><path class="cls-10" d="M78.68,72.34s4.63,6.72,4.22,12.18-6.43,37.47,9.25,30.6c0,0-8,15.77-18.09,3.59s-2.82-32.78-2.82-32.78-3.82-7.34-.8-11.56S78.68,72.34,78.68,72.34Z"/><polygon class="cls-11" points="79.84 87.44 87.2 87.35 86.92 90.21 79.56 89.89 79.84 87.44"/><polygon class="cls-11" points="79.47 91.27 86.67 91.71 86.39 94.57 79.03 94.25 79.47 91.27"/><polygon class="cls-11" points="89.88 63.89 87.3 86.26 80.02 86.5 82.25 69.21 89.88 63.89"/><polygon class="cls-4" points="99.46 61.12 86.73 43.38 90.21 10.4 67.84 38.17 67.64 52.05 78.83 73.65 99.46 61.12"/><path class="cls-10" d="M99.3,68.38s-13.79-11.91-24.18-9-10,17.73-8,24.13-7.42,14.67-7.42,14.67,15.64,4.64,20.4-6.53S73.37,68.15,99.3,68.38Z"/><path class="cls-10" d="M81.6,61c-1.84-5.72,5.75-1.74,16.49-2.73s26.46-18.84,38.87,10l-10.41.6s-2.82,16.72,3.57,25.38c0,0-7,3.56-11.32-11.56s-15.93-7.23-21.16-6.12C93.54,77.5,84.92,71.31,81.6,61Z"/><path class="cls-11" d="M94,94.59l-.16,11.87,11.45,5.32L94.55,106V94.75C94.55,94.87,94,94.59,94,94.59Z"/><polygon class="cls-1" points="92.55 94.59 92.41 104.79 88.76 94.03 92.55 94.59"/><path class="cls-1" d="M89.54,89.11a10.22,10.22,0,0,0-4.81-3.18c-2.69-.59-4.44-4.22-4.44-4.22s.35,7.56,4.44,8.56A6,6,0,0,0,89.54,89.11Z"/><polygon class="cls-1" points="86.36 87.33 105.47 94.55 105.54 97.64 86.38 94.26 84.73 90.27 86.36 87.33"/><g class="cls-12"><ellipse class="cls-10" cx="90.03" cy="91.18" rx="1.26" ry="3.87"/></g><polygon class="cls-1" points="86.98 79.45 90.81 78.5 103.57 88.48 91.94 75.28 86.98 79.45"/><polygon class="cls-1" points="108.15 113.03 113.31 112.18 113.62 111.07 108.15 113.03"/><path class="cls-1" d="M110.8,112.08s1.11-2.67,3.43-2.37c2.74.35-.87,2-.87,2Z"/></g></svg>