<svg xmlns="http://www.w3.org/2000/svg" xmlns:xlink="http://www.w3.org/1999/xlink" viewBox="0 0 111.07 168.94"><defs><style>.cls-1,.cls-6{fill:#1d1d1b;}.cls-2{fill:#262630;}.cls-3{fill:url(#Gradiente_sem_nome_71);}.cls-4{fill:#f99367;}.cls-5{clip-path:url(#clip-path);}.cls-6,.cls-7{stroke:#f99367;stroke-miterlimit:10;}.cls-7{fill:none;}.cls-8{fill:url(#Gradiente_sem_nome_81);}.cls-9{fill:url(#Gradiente_sem_nome_81-2);}.cls-10{fill:url(#Gradiente_sem_nome_3);}</style><linearGradient id="Gradiente_sem_nome_71" x1="83.06" y1="90.19" x2="83.06" y2="24.48" gradientUnits="userSpaceOnUse"><stop offset="0.33" stop-color="#1d1d1b"/><stop offset="0.33" stop-color="#242321"/><stop offset="0.35" stop-color="#4c4640"/><stop offset="0.37" stop-color="#70655c"/><stop offset="0.4" stop-color="#8e7f73"/><stop offset="0.42" stop-color="#a79486"/><stop offset="0.45" stop-color="#baa495"/><stop offset="0.48" stop-color="#c7af9f"/><stop offset="0.53" stop-color="#cfb6a5"/><stop offset="0.61" stop-color="#d1b8a7"/><stop offset="0.65" stop-color="#c3ac9c"/><stop offset="0.73" stop-color="#9e8c7f"/><stop offset="0.84" stop-color="#615850"/><stop offset="0.96" stop-color="#1d1d1b"/></linearGradient><clipPath id="clip-path"><polygon class="cls-1" points="71.91 49.64 92.53 51.87 94.76 55.04 93.03 56.42 73.41 56.42 71.02 52.98 71.91 49.64"/></clipPath><linearGradient id="Gradiente_sem_nome_81" x1="50.69" y1="187.73" x2="50.69" y2="94.77" gradientUnits="userSpaceOnUse"><stop offset="0.17" stop-color="#f8fbff"/><stop offset="0.29" stop-color="#edf0f4"/><stop offset="0.49" stop-color="#cfd3d8"/><stop offset="0.75" stop-color="#9fa4aa"/><stop offset="1" stop-color="#6a7077"/></linearGradient><linearGradient id="Gradiente_sem_nome_81-2" x1="33.31" y1="189.22" x2="33.31" y2="104.2" xlink:href="#Gradiente_sem_nome_81"/><linearGradient id="Gradiente_sem_nome_3" x1="57.03" y1="166.99" x2="57.03" y2="92.23" gradientUnits="userSpaceOnUse"><stop offset="0.17" stop-color="#9a9c9e"/><stop offset="1" stop-color="#6a7077"/></linearGradient></defs><g id="Camada_3" data-name="Camada 3"><polygon class="cls-2" points="37.53 59.25 44.77 103.46 78.25 105.56 76.5 74.41 37.53 59.25"/><polygon class="cls-2" points="35.92 94.65 82.31 104.36 106.45 162.53 96.81 179.83 32.92 179.83 14.96 123.6 35.92 94.65"/><circle class="cls-1" cx="65.33" cy="37.01" r="37.01"/><path class="cls-3" d="M62.28,39.26V69.5L91.86,90.19l10.48-13.51,1.49-22-3.49-4.61,2.37-3.86-1-6.54C92.64,25.11,62.32,14.6,62.28,39.26Z"/><path class="cls-1" d="M30.47,45.49s-15.16-20.67-27-16.8L0,14.42S24.36-2.22,60,.38Z"/><polygon class="cls-1" points="57.28 62.09 68.08 57.12 68.08 41.3 57.95 35.64 47.35 41.3 47.35 57.12 57.28 62.09"/><polygon class="cls-1" points="65.81 55 68.38 59.9 88.63 66.72 98.14 51.95 105.35 55.59 111.08 65.85 104.24 82.28 92.87 92.2 59.2 76.03 54.4 54.96 65.81 55"/><polygon class="cls-1" points="68.56 62.51 79.04 58.79 79.04 66.96 68.56 62.51"/><path class="cls-4" d="M83.17,92C79.5,92,74.78,89.71,70.84,86c-6-5.69-8.41-12.86-5.43-16a5.24,5.24,0,0,1,3.9-1.43c3.66,0,8.38,2.34,12.33,6.09,6,5.7,8.4,12.87,5.42,16A5.23,5.23,0,0,1,83.17,92Z"/><path class="cls-1" d="M69.31,69h0c3.54,0,8.13,2.28,12,6,5.67,5.4,8.15,12.4,5.41,15.27a4.68,4.68,0,0,1-3.54,1.28c-3.54,0-8.13-2.28-12-6C65.51,80.18,63,73.18,65.77,70.31A4.68,4.68,0,0,1,69.31,69m0-1a5.66,5.66,0,0,0-4.26,1.59c-3.17,3.33-.74,10.8,5.44,16.69,4.19,4,9,6.23,12.67,6.23A5.7,5.7,0,0,0,87.43,91c3.17-3.32.73-10.8-5.45-16.69C77.8,70.27,73,68,69.31,68Z"/><circle class="cls-4" cx="71.38" cy="30.41" r="3.43"/><polygon class="cls-1" points="71.91 49.64 92.53 51.87 94.76 55.04 93.03 56.42 73.41 56.42 71.02 52.98 71.91 49.64"/><g class="cls-5"><ellipse class="cls-6" cx="88.5" cy="53.87" rx="1.62" ry="5.26"/></g><polygon class="cls-1" points="70.9 42.03 72.85 38.8 91.81 48.1 72.07 35.84 70.9 42.03"/><polyline class="cls-7" points="107.12 72.11 100.71 72.11 97.81 78.63 91.79 78.63 88.56 83.87"/><polygon class="cls-1" points="90.45 122.76 74.64 121.43 63.83 100.28 83.17 102.33 90.45 122.76"/><polygon class="cls-1" points="91.86 124.71 80.98 123.07 71.98 160.49 81.37 183.66 105.29 181 109.22 171.72 91.86 124.71"/><polygon class="cls-4" points="83.1 125.81 91.08 126.75 110.81 164.48 104.94 179.83 82.86 179.83 75.19 159.94 83.1 125.81"/><polygon class="cls-8" points="32.77 94.77 12.17 120.33 17.73 187.73 88.58 187.73 89.2 136.61 74.33 103.19 32.77 94.77"/><polygon class="cls-9" points="17.34 104.2 5.83 127.22 9.82 132.39 5.83 136.61 3.95 189.22 56.79 189.22 62.66 129.57 60.24 109.53 17.34 104.2"/><polygon class="cls-10" points="88.83 167 89.2 136.61 74.33 103.19 34.72 92.23 24.85 101.15 64.93 108.59 64.07 132.28 88.83 167"/></g></svg>