<svg xmlns="http://www.w3.org/2000/svg" xmlns:xlink="http://www.w3.org/1999/xlink" viewBox="0 0 189.49 508.43"><defs><style>.cls-1,.cls-18{fill:#1d1d1b;}.cls-2{fill:url(#Gradiente_sem_nome_81);}.cls-3{fill:url(#Gradiente_sem_nome_74);}.cls-4{fill:url(#Gradiente_sem_nome_82);}.cls-5{fill:#f99367;}.cls-6{fill:#4f362f;}.cls-7{fill:#262630;}.cls-8{fill:#302825;}.cls-9{fill:none;}.cls-18,.cls-9{stroke:#f99367;stroke-miterlimit:10;}.cls-10{fill:#825e4c;}.cls-11{fill:url(#Gradiente_sem_nome_77);}.cls-12{fill:url(#Gradiente_sem_nome_77-2);}.cls-13{fill:url(#Gradiente_sem_nome_3);}.cls-14{fill:url(#Gradiente_sem_nome_3-2);}.cls-15{fill:url(#Gradiente_sem_nome_52);}.cls-16{fill:url(#Gradiente_sem_nome_71);}.cls-17{clip-path:url(#clip-path);}.cls-19{clip-path:url(#clip-path-2);}</style><linearGradient id="Gradiente_sem_nome_81" x1="33.04" y1="89.17" x2="33.04" y2="163.39" gradientUnits="userSpaceOnUse"><stop offset="0.17" stop-color="#f8fbff"/><stop offset="0.29" stop-color="#edf0f4"/><stop offset="0.49" stop-color="#cfd3d8"/><stop offset="0.75" stop-color="#9fa4aa"/><stop offset="1" stop-color="#6a7077"/></linearGradient><linearGradient id="Gradiente_sem_nome_74" x1="177.31" y1="149.35" x2="127.35" y2="187.22" gradientUnits="userSpaceOnUse"><stop offset="0" stop-color="#262630"/><stop offset="0.96" stop-color="#f99367"/></linearGradient><linearGradient id="Gradiente_sem_nome_82" x1="149.7" y1="86.74" x2="149.7" y2="165.79" gradientUnits="userSpaceOnUse"><stop offset="0.17" stop-color="#f8fbff"/><stop offset="0.73" stop-color="#959aa0"/><stop offset="1" stop-color="#6a7077"/></linearGradient><linearGradient id="Gradiente_sem_nome_77" x1="132.72" y1="82.12" x2="132.72" y2="336.51" gradientUnits="userSpaceOnUse"><stop offset="0.17" stop-color="#f8fbff"/><stop offset="1" stop-color="#6a7077"/></linearGradient><linearGradient id="Gradiente_sem_nome_77-2" x1="49.01" y1="85.26" x2="49.01" y2="338.75" xlink:href="#Gradiente_sem_nome_77"/><linearGradient id="Gradiente_sem_nome_3" x1="33.62" y1="110.3" x2="66.03" y2="110.3" gradientUnits="userSpaceOnUse"><stop offset="0.17" stop-color="#9a9c9e"/><stop offset="1" stop-color="#6a7077"/></linearGradient><linearGradient id="Gradiente_sem_nome_3-2" x1="-1194.54" y1="107.77" x2="-1163.8" y2="107.77" gradientTransform="matrix(-1, 0, 0, 1, -1049.54, 0)" xlink:href="#Gradiente_sem_nome_3"/><linearGradient id="Gradiente_sem_nome_52" x1="1.41" y1="165.79" x2="105.93" y2="165.79" gradientUnits="userSpaceOnUse"><stop offset="0" stop-color="#262630"/><stop offset="0.36" stop-color="#282730"/><stop offset="0.49" stop-color="#2f2a32"/><stop offset="0.59" stop-color="#3a3135"/><stop offset="0.66" stop-color="#4b393a"/><stop offset="0.73" stop-color="#61453f"/><stop offset="0.78" stop-color="#7d5347"/><stop offset="0.84" stop-color="#9d634f"/><stop offset="0.88" stop-color="#c37759"/><stop offset="0.93" stop-color="#ec8c64"/><stop offset="0.94" stop-color="#f99367"/></linearGradient><linearGradient id="Gradiente_sem_nome_71" x1="83.53" y1="77.18" x2="83.53" y2="23.49" gradientUnits="userSpaceOnUse"><stop offset="0.33" stop-color="#1d1d1b"/><stop offset="0.33" stop-color="#242321"/><stop offset="0.35" stop-color="#4c4640"/><stop offset="0.37" stop-color="#70655c"/><stop offset="0.4" stop-color="#8e7f73"/><stop offset="0.42" stop-color="#a79486"/><stop offset="0.45" stop-color="#baa495"/><stop offset="0.48" stop-color="#c7af9f"/><stop offset="0.53" stop-color="#cfb6a5"/><stop offset="0.61" stop-color="#d1b8a7"/><stop offset="0.65" stop-color="#c3ac9c"/><stop offset="0.73" stop-color="#9e8c7f"/><stop offset="0.84" stop-color="#615850"/><stop offset="0.96" stop-color="#1d1d1b"/></linearGradient><clipPath id="clip-path"><polygon class="cls-1" points="55.9 46.5 70.06 47.91 72.18 52.34 57.77 52.55 55.14 49.53 55.9 46.5"/></clipPath><clipPath id="clip-path-2"><polygon class="cls-1" points="105.62 46.5 89.06 47.91 86.72 52.34 103.56 52.55 106.45 49.53 105.62 46.5"/></clipPath></defs><g id="Camada_2" data-name="Camada 2"><polygon class="cls-2" points="54.78 89.17 21.63 100.76 22.49 104.94 18.6 109.28 3.73 156.75 26.39 163.39 50.22 162.96 62.35 132.35 54.78 89.17"/><polygon class="cls-1" points="53.95 165.99 61.09 152.84 31.19 153.62 0 140.05 3.95 164.51 29.45 169.6 53.95 165.99"/><path class="cls-3" d="M125.53,174.14l13.09-16.47,28.14.43c2.87-10.47,11.23-13.64,22.73-12.65-3.71,4-8.71,12.31-8.71,12.31l-2.27,11.69-51,26.63Z"/><polygon class="cls-4" points="125.76 86.74 172.94 96.54 169.77 103.76 173.52 106.65 176.99 158.92 154.94 165.79 137.13 161.51 122.41 115.6 125.76 86.74"/><polygon class="cls-1" points="135.64 161.41 128.38 145.87 149.32 145.87 180.81 135.66 179.28 160.34 154.77 169.02 135.64 161.41"/><path class="cls-5" d="M143.08,187.87l-3-5.71,1.06-.55,1.27,2.45,1.43-.75-1.27-2.45,1-.55,3,5.72-1.05.55-1.42-2.72-1.43.74,1.42,2.73Z"/><path class="cls-5" d="M147.7,185.47l-.3-.58-.54-5.54-1.68.87-.29-.56,2.77-1.44.26.51.58,5.61,1.8-.94.29.56Z"/><path class="cls-5" d="M151.59,183.44l-3-5.72,1.88-1a2.85,2.85,0,0,1,1.13-.39.91.91,0,0,1,.7.25,3,3,0,0,1,.53.76,2.08,2.08,0,0,1,.27.93,1,1,0,0,1-.44.74,1,1,0,0,1,.47-.08.86.86,0,0,1,.43.21,2.36,2.36,0,0,1,.44.54,9.69,9.69,0,0,1,.54.94,1.16,1.16,0,0,1,.08.16l.13.22c0,.08.09.16.14.24a1.74,1.74,0,0,0,.13.2.37.37,0,0,0,.11.11l-1,.55s-.06,0-.11-.11-.1-.15-.16-.26a3.9,3.9,0,0,1-.22-.38c-.09-.15-.18-.32-.28-.51s-.2-.4-.32-.62a2.25,2.25,0,0,0-.3-.48.38.38,0,0,0-.33-.13,1.88,1.88,0,0,0-.55.19l-.64.3,1.44,2.76Zm-.64-3.8.67-.35a1.13,1.13,0,0,0,.4-.31.44.44,0,0,0,.06-.4,3,3,0,0,0-.29-.69l0,0a2.33,2.33,0,0,0-.34-.52.41.41,0,0,0-.33-.14,1.54,1.54,0,0,0-.5.17l-.66.35Z"/><path class="cls-5" d="M156.36,181l-3-5.71,1.68-.88a3,3,0,0,1,1.19-.38,1.28,1.28,0,0,1,.83.24,2.29,2.29,0,0,1,.59.75l1.32,2.51a2.52,2.52,0,0,1,.31,1,1.27,1.27,0,0,1-.31.84,3.25,3.25,0,0,1-1,.74Zm.77-1.08.53-.28a1.28,1.28,0,0,0,.43-.33.58.58,0,0,0,.13-.45,1.83,1.83,0,0,0-.23-.67l-1.37-2.64a1.31,1.31,0,0,0-.6-.66.94.94,0,0,0-.78.1l-.53.28Z"/><path class="cls-5" d="M159.63,176.1l-.24-.47,2.29-1.2.25.47Z"/><path class="cls-5" d="M164.9,176.5l-.17-.32a2.35,2.35,0,0,1-.23-.64,2.4,2.4,0,0,1,0-.71,7,7,0,0,1,.19-1l.33-1.36a1.22,1.22,0,0,0,0-.37,2.05,2.05,0,0,0-.14-.69c0-.1-.09-.2-.14-.3a2.43,2.43,0,0,0-.37-.59.48.48,0,0,0-.31-.19.73.73,0,0,0-.36.11.67.67,0,0,0-.31.25.47.47,0,0,0-.05.38,3.19,3.19,0,0,0,.28.69l.39.74-1,.54-.21-.41a5.28,5.28,0,0,1-.44-1.09,1.15,1.15,0,0,1,.12-.89,2.54,2.54,0,0,1,1-.82,1.8,1.8,0,0,1,1-.27,1.1,1.1,0,0,1,.73.33,2.6,2.6,0,0,1,.55.75,2.82,2.82,0,0,1,.22.56,2.09,2.09,0,0,1,.06.56,3,3,0,0,1-.08.63l-.33,1.36c-.08.31-.13.56-.16.75a1.57,1.57,0,0,0,0,.48,1.48,1.48,0,0,0,.16.44l1.93-1,.26.5Z"/><path class="cls-5" d="M170.57,173.63a2,2,0,0,1-1.48.29,1.91,1.91,0,0,1-1-1l-.15-.29,1-.51.13.26a4.16,4.16,0,0,0,.37.59.59.59,0,0,0,.35.22,1,1,0,0,0,.49-.13.86.86,0,0,0,.38-.34.65.65,0,0,0,0-.44,4.53,4.53,0,0,0-.28-.65A2.91,2.91,0,0,0,170,171a.69.69,0,0,0-.46-.22,1.34,1.34,0,0,0-.59.18l-.25.13-.28-.54.24-.12a1.72,1.72,0,0,0,.49-.36.52.52,0,0,0,.11-.44,2.21,2.21,0,0,0-.25-.68,1.9,1.9,0,0,0-.39-.55.56.56,0,0,0-.36-.15,1.08,1.08,0,0,0-.39.12.72.72,0,0,0-.32.27.6.6,0,0,0-.06.39,2.26,2.26,0,0,0,.23.61l.07.13-1,.53-.09-.18a1.72,1.72,0,0,1-.22-1.29,2.06,2.06,0,0,1,1.1-1,2.09,2.09,0,0,1,1.5-.3,1.67,1.67,0,0,1,1,.91,1.72,1.72,0,0,1,.22.93,1.19,1.19,0,0,1-.46.82,1.36,1.36,0,0,1,.7,0,1.43,1.43,0,0,1,.56.35,2.19,2.19,0,0,1,.41.57,1.93,1.93,0,0,1,.25,1.44A2.06,2.06,0,0,1,170.57,173.63Z"/><polygon class="cls-6" points="61.83 269.45 78.43 254.98 93.32 272.34 90.43 322.89 52.47 325.11 61.83 269.45"/><polygon class="cls-1" points="56.3 235.93 55.7 344.85 80.21 343.06 78.3 246.3 56.3 235.93"/><polygon class="cls-1" points="87.53 343.15 90.25 263.49 86 249.19 78.36 249.69 82.94 267.4 80.21 343.06 87.53 343.15"/><polygon class="cls-7" points="82.65 232.26 97.67 337.37 141.55 330.16 143.57 307.93 127.23 223.87 82.65 232.26"/><polygon class="cls-7" points="43.93 338.64 40.76 507.4 96.82 506.8 93.89 338.1 43.93 338.64"/><polygon class="cls-8" points="75.87 346.38 98.34 370.64 96.09 465.12 100.13 493.42 97.39 503.69 97.39 507.75 19.95 507.75 22.25 487.83 35.53 489.36 40.64 466.89 41.15 347.92 75.87 346.38"/><polygon class="cls-1" points="49.74 356.43 42.26 349.45 47.19 333.11 75.11 334.13 81.23 348.43 74.77 356.25 49.74 356.43"/><polygon class="cls-1" points="50.09 355.23 53.15 460.77 74.08 460.77 74.77 356.25 50.09 355.23"/><polygon class="cls-7" points="97.67 337.37 113.84 507.74 168.69 501.98 141.55 330.16 97.67 337.37"/><polygon class="cls-8" points="98.34 370.64 107.96 479.49 107.62 508.43 174 508.43 164.73 476.89 151.87 355.23 126 350.47 98.34 370.64"/><polygon class="cls-1" points="111.55 360.42 103.47 354.13 106.95 337.42 134.84 335.97 142.21 349.67 136.46 358.04 111.55 360.42"/><polygon class="cls-1" points="111.78 359.2 124.14 464.05 144.99 462.21 136.46 358.04 111.78 359.2"/><polygon class="cls-7" points="72.04 86.64 73.52 66.08 114.17 57.18 114.34 85.96 72.04 86.64"/><polygon class="cls-7" points="43.26 93.66 70.92 82.86 115.59 82.1 143.78 92.21 141.08 137.26 130.69 157.28 49.06 157.28 35.2 138.03 43.26 93.66"/><polygon class="cls-7" points="49.83 148.81 45.21 233.9 82.94 255.07 132.61 229.66 128.76 148.81 49.83 148.81"/><polygon class="cls-1" points="45.23 100.43 57.62 95.32 114.34 95.32 123.28 100.6 125.32 140.09 111.36 141.11 104.25 136.17 56.94 136.17 50.21 140.98 36.47 139.57 45.23 100.43"/><polygon class="cls-1" points="49.91 145.52 60.64 139.4 101.32 139.4 110.34 147.06 114.25 181.28 101.15 204.94 62.51 204.94 49.4 184.34 49.91 145.52"/><polygon class="cls-1" points="103.36 206.64 119.19 182.81 130.71 189.76 133.15 211.91 122.25 218.89 103.36 206.64"/><polygon class="cls-1" points="47.58 190.26 59.28 206.3 46.01 219.21 47.58 190.26"/><polygon class="cls-5" points="40.89 133.67 51.63 133.44 58.22 130.33 100.93 132.56 114.08 120.51 121.83 135.31 120.19 107.67 110.94 100.68 58.22 99.66 47.65 103.16 40.89 133.67"/><circle class="cls-1" cx="53.28" cy="105.4" r="2.43"/><circle class="cls-1" cx="112.35" cy="103.86" r="2.43"/><path class="cls-1" d="M88.56,132.56V121.35H90.4a1.44,1.44,0,0,1,1,.31,1.6,1.6,0,0,1,.44,1,10.25,10.25,0,0,1,.1,1.6,6.64,6.64,0,0,1-.16,1.65,1.08,1.08,0,0,1-.64.79.61.61,0,0,1,.39.26,1.59,1.59,0,0,1,.25.66,8.94,8.94,0,0,1,.13,1.19c0,.5,0,1.13,0,1.89v.75c0,.17,0,.32,0,.48s0,.3,0,.42a1.09,1.09,0,0,0,0,.26H91a.77.77,0,0,1,0-.25c0-.13,0-.31,0-.52s0-.48,0-.78v-2.23c0-.42,0-.74,0-1a.71.71,0,0,0-.2-.46.93.93,0,0,0-.51-.16l-.61,0v5.41Zm1-6.38h.66a.62.62,0,0,0,.44-.15.91.91,0,0,0,.2-.57,10.23,10.23,0,0,0,.06-1.29v-.08a9.49,9.49,0,0,0,0-1.08.8.8,0,0,0-.21-.49.65.65,0,0,0-.45-.13h-.65Z"/><path class="cls-1" d="M92.78,132.56l1.33-11.21h1.24l1.46,11.21h-1l-.25-2.14H94l-.23,2.14Zm1.32-3.21h1.35l-.69-5.92h0Z"/><path class="cls-1" d="M98.47,132.56,97,121.35h1l.59,4.75.5,4.17h0l.43-4.17.51-4.75h1l-1.33,11.21Z"/><path class="cls-1" d="M101.93,132.56V121.35h2.63v1.09H103v3.84h1.51v1.1H103v4.09h1.61v1.09Z"/><path class="cls-1" d="M105.7,132.56V121.35h.78l2,7.63-.1-3.24v-4.39h.91v11.21h-.76l-2-7.69.06,2.82v4.87Z"/><path class="cls-1" d="M110.9,132.56V131.3h.88v1.26Z"/><path class="cls-1" d="M113.42,132.56V121.35h1v11.21Z"/><path class="cls-1" d="M115.9,132.56V121.35h.78l2,7.63-.1-3.24v-4.39h.91v11.21h-.76l-2-7.69.06,2.82v4.87Z"/><path class="cls-1" d="M122.59,132.7a1.35,1.35,0,0,1-1-.4,2.45,2.45,0,0,1-.54-1.17,9,9,0,0,1-.17-1.87v-4.67a11.19,11.19,0,0,1,.08-1.36,4.22,4.22,0,0,1,.26-1.06,1.67,1.67,0,0,1,.54-.7,1.5,1.5,0,0,1,.88-.24,1.35,1.35,0,0,1,.84.23,1.49,1.49,0,0,1,.51.66,3.64,3.64,0,0,1,.24,1,10.41,10.41,0,0,1,.07,1.3v1.25h-1v-1.25a7.58,7.58,0,0,0-.12-1.57c-.08-.34-.25-.52-.53-.52s-.48.18-.58.54a6.09,6.09,0,0,0-.14,1.54v4.86a12.09,12.09,0,0,0,0,1.32,1.82,1.82,0,0,0,.21.74.49.49,0,0,0,.43.23c.28,0,.46-.18.55-.54a8.11,8.11,0,0,0,.13-1.76V128h1v1.23a10,10,0,0,1-.15,1.89,2.32,2.32,0,0,1-.52,1.15A1.36,1.36,0,0,1,122.59,132.7Z"/><polygon class="cls-1" points="58.77 219.83 72.72 231.91 92.98 231.91 106.6 218.98 92.13 208.77 69.66 208.77 58.77 219.83"/><polygon class="cls-1" points="46.6 119.92 51.28 117.75 54.77 117.75 56 116.64 58.77 117.66 56.26 117.28 54.98 118.17 57.53 119.75 60.77 120.13 57.66 120.3 54.55 118.38 51.11 118.51 46.6 119.92"/><polygon class="cls-1" points="46.17 121.4 51.02 124.34 57.45 123.28 51.11 124.98 52.51 125.62 54.64 125.66 52.43 126.08 47.74 123.66 46.17 121.4"/><ellipse class="cls-9" cx="66.87" cy="311.15" rx="12.06" ry="10.34"/><ellipse class="cls-9" cx="71.91" cy="315.55" rx="7.02" ry="14.74"/><polygon class="cls-10" points="50.29 316.3 54.75 313.65 68.75 312.23 81.31 316.66 84.94 250.25 71.15 238 50.38 235.96 46.38 304.38 50.29 316.3"/><polygon class="cls-5" points="48.38 304.13 68.98 303.96 77.66 308.21 80.72 277.87 79.19 273.96 81.23 256.21 71.87 248.81 51.57 247.65 48.38 304.13"/><circle class="cls-10" cx="69.43" cy="252.68" r="1.98"/><circle class="cls-10" cx="66.94" cy="301.02" r="1.57"/><path class="cls-10" d="M77.93,307.54a.94.94,0,0,1-.14.51.54.54,0,0,1-.31.2,1.1,1.1,0,0,1-.41,0l-.92-.06a.94.94,0,0,1-.39-.11.6.6,0,0,1-.25-.29,1.17,1.17,0,0,1-.06-.56.66.66,0,0,1,.08-.32.44.44,0,0,1,.15-.21l-.62-.05,0-.64,2.9.21-.05.65-.21,0a.52.52,0,0,1,.16.28A1.25,1.25,0,0,1,77.93,307.54Zm-.25-.25a.86.86,0,0,0,0-.24.24.24,0,0,0-.13-.15.73.73,0,0,0-.3-.07l-1-.07a.6.6,0,0,0-.37.05c-.08,0-.13.15-.14.32a.39.39,0,0,0,.09.33.78.78,0,0,0,.37.1l1,.08h.24a.32.32,0,0,0,.17-.1A.45.45,0,0,0,77.68,307.29Z"/><path class="cls-10" d="M78.18,304.35a2.08,2.08,0,0,1-.1.53.82.82,0,0,1-.19.31.66.66,0,0,1-.28.13,1.33,1.33,0,0,1-.35,0l-.86-.06a.9.9,0,0,1-.41-.12.6.6,0,0,1-.26-.33,1.62,1.62,0,0,1,0-.66,2.13,2.13,0,0,1,.09-.52.87.87,0,0,1,.2-.3.51.51,0,0,1,.26-.14,1.67,1.67,0,0,1,.32,0l.87.07a1.72,1.72,0,0,1,.34.06.53.53,0,0,1,.25.17.64.64,0,0,1,.15.32A2.31,2.31,0,0,1,78.18,304.35Zm-.28,0a.4.4,0,0,0,0-.26.25.25,0,0,0-.16-.12.72.72,0,0,0-.24-.05l-1-.08H76.2a.32.32,0,0,0-.17.1.53.53,0,0,0-.08.25.64.64,0,0,0,0,.27.37.37,0,0,0,.15.13l.24,0,1,.07h.25a.28.28,0,0,0,.17-.11A.41.41,0,0,0,77.9,304.33Z"/><path class="cls-10" d="M78.29,302.47l-2.45-.18,0-.64.26,0a.56.56,0,0,1-.18-.28,1.15,1.15,0,0,1,0-.5,1,1,0,0,1,.17-.54.44.44,0,0,1,.41-.17l2,.14,0,.65-2-.15a.19.19,0,0,0-.19.1.49.49,0,0,0-.08.28.63.63,0,0,0,0,.24.3.3,0,0,0,.08.17.2.2,0,0,0,.15.08l1.92.14Z"/><path class="cls-10" d="M78.59,298.61a1.93,1.93,0,0,1-.07.45.29.29,0,0,1-.14.2.36.36,0,0,1-.22,0l-1.81-.14,0,.43h-.24l0-.43-.44,0,0-.64.45,0,0-.5.25,0,0,.5,1.79.14a.12.12,0,0,0,.09,0,.27.27,0,0,0,0-.14c0-.07,0-.18,0-.34l.26,0Z"/><path class="cls-10" d="M78.77,296l-2.45-.18.05-.65.28,0a.53.53,0,0,1-.21-.3,1.64,1.64,0,0,1,0-.52h.29c0,.1,0,.2,0,.3a1.25,1.25,0,0,0,0,.29.54.54,0,0,0,.1.23l2,.15Z"/><path class="cls-10" d="M79,293.05a2.27,2.27,0,0,1-.1.54.75.75,0,0,1-.2.3.65.65,0,0,1-.28.12,2,2,0,0,1-.35,0l-.86-.07a.83.83,0,0,1-.32-.07.58.58,0,0,1-.23-.18.72.72,0,0,1-.14-.33,1.78,1.78,0,0,1,0-.53,1.65,1.65,0,0,1,.1-.52.69.69,0,0,1,.18-.29.54.54,0,0,1,.27-.11,1.13,1.13,0,0,1,.32,0l.46,0-.1,1.4.49,0a.89.89,0,0,0,.35,0q.14-.06.15-.33a.4.4,0,0,0,0-.26.23.23,0,0,0-.15-.1l-.25,0-.2,0,.05-.62h.1a1.82,1.82,0,0,1,.35.06.52.52,0,0,1,.4.46A1.88,1.88,0,0,1,79,293.05Zm-1.5.28.06-.76-.31,0H77a.27.27,0,0,0-.16.08.46.46,0,0,0-.07.24.57.57,0,0,0,0,.28.28.28,0,0,0,.16.12.71.71,0,0,0,.23.05Z"/><path class="cls-10" d="M79.12,291.26l-2.44-.18,0-.64.25,0a.58.58,0,0,1-.18-.27,1.21,1.21,0,0,1,0-.49,1.24,1.24,0,0,1,.09-.4.5.5,0,0,1,.21-.24.9.9,0,0,1-.16-.34,1.44,1.44,0,0,1,0-.48,1,1,0,0,1,.18-.55.48.48,0,0,1,.42-.17l1.93.15,0,.64-1.94-.14a.2.2,0,0,0-.2.08.67.67,0,0,0-.07.27.92.92,0,0,0,0,.36.21.21,0,0,0,.19.12l1.93.14,0,.65-1.94-.15a.19.19,0,0,0-.19.09A.47.47,0,0,0,77,290a.64.64,0,0,0,0,.36.24.24,0,0,0,.2.13l1.9.14Z"/><path class="cls-10" d="M79.56,285.8a2.08,2.08,0,0,1-.1.53.72.72,0,0,1-.2.31.53.53,0,0,1-.27.13,1.33,1.33,0,0,1-.35,0l-.86-.06a.9.9,0,0,1-.41-.12.6.6,0,0,1-.26-.33,1.46,1.46,0,0,1,0-.66,1.8,1.8,0,0,1,.09-.52.86.86,0,0,1,.19-.3.59.59,0,0,1,.27-.14,1.67,1.67,0,0,1,.32,0l.87.07a1.61,1.61,0,0,1,.33.06.52.52,0,0,1,.26.17.64.64,0,0,1,.15.32A2.31,2.31,0,0,1,79.56,285.8Zm-.28,0a.47.47,0,0,0,0-.26.28.28,0,0,0-.16-.12.78.78,0,0,0-.24,0l-1-.08a.9.9,0,0,0-.24,0,.23.23,0,0,0-.17.1.45.45,0,0,0-.08.24.64.64,0,0,0,0,.27.32.32,0,0,0,.15.13l.24,0,1,.08H79a.27.27,0,0,0,.17-.1A.57.57,0,0,0,79.28,285.78Z"/><path class="cls-10" d="M79.7,283.54l-2.5.5,0-.59,1.42-.26.59-.09v0l-.57-.15-1.36-.43,0-.58,2.39.86Z"/><path class="cls-10" d="M80,280.53a2.27,2.27,0,0,1-.1.54.75.75,0,0,1-.2.3.65.65,0,0,1-.28.12,2,2,0,0,1-.35,0l-.86-.07a.83.83,0,0,1-.32-.07.58.58,0,0,1-.23-.18.72.72,0,0,1-.14-.33,1.78,1.78,0,0,1,0-.53,1.65,1.65,0,0,1,.1-.52.8.8,0,0,1,.18-.29.54.54,0,0,1,.27-.11,1.13,1.13,0,0,1,.32,0l.46,0-.1,1.4.49,0a1,1,0,0,0,.36,0c.08,0,.13-.15.14-.33a.4.4,0,0,0,0-.26.23.23,0,0,0-.15-.1l-.25,0H79l0-.63h.1a1.82,1.82,0,0,1,.35.06.58.58,0,0,1,.25.15.6.6,0,0,1,.15.31A1.88,1.88,0,0,1,80,280.53Zm-1.5.28.06-.76-.31,0H78a.27.27,0,0,0-.16.08.46.46,0,0,0-.07.24.57.57,0,0,0,0,.28.28.28,0,0,0,.16.12.71.71,0,0,0,.23.05Z"/><polygon class="cls-11" points="142 231.32 130.69 157.28 142.25 140.6 146.6 91.57 114.26 82.12 122.08 100.25 116.98 146.98 116.49 237.91 129.4 336.51 151.19 308.6 142 231.32"/><polygon class="cls-12" points="38.85 233.79 44.98 156.94 33.23 137.28 43.26 93.66 64.78 85.26 51.36 99.57 46.89 138.13 53.91 150.04 52.89 241.45 49.33 338.75 37.32 320.08 38.85 233.79"/><polygon class="cls-1" points="64.64 92.51 111.53 92.51 109.81 79.72 72.39 79.72 64.64 92.51"/><polygon class="cls-13" points="66.03 84.78 51.36 99.57 47.16 135.83 39.09 116.64 33.62 112.64 44.21 91.06 66.03 84.78"/><polygon class="cls-14" points="114.26 82.12 122.08 100.25 118.46 133.42 130.32 113.58 145 109.61 134.25 86.47 114.26 82.12"/><path class="cls-15" d="M17.38,161.09,27,149.79l12.27,2.29,18.89.37,18.36,6.25,12-6.2,14.75.2,2.63,3.28-3.68,4,3.16.82-.6,15.49-6.72,3.35-21.23-2.22-43.72,4.4-21.6-5.07L1.41,179.33S2.13,161.62,17.38,161.09Z"/><polygon class="cls-1" points="30 165.36 74.84 161.6 76.21 178.64 72.72 181.62 29.06 186.04 21.23 179.15 21.91 164.25 30 165.36"/><polygon class="cls-10" points="38.51 183.7 38.51 169.36 72.05 166.58 72.98 180.29 38.51 183.7"/><polygon class="cls-5" points="39.52 182.74 39.79 170.43 71.09 167.54 71.97 179.75 39.52 182.74"/><polygon class="cls-5" points="31.96 171.46 37.41 171.04 37.29 176.02 31.89 176.37 31.96 171.46"/><polygon class="cls-5" points="31.98 178.5 37.44 178.09 37.62 182.98 31.91 183.41 31.98 178.5"/><polyline class="cls-1" points="29.21 165.38 29.87 164.81 29.62 162.09 31.04 159.36 31.17 156.15 31.32 159.43 30.17 161.96 31.64 161.38 32.15 158.4 33.96 154.94 32.62 158.72 32.02 161.66 30.06 162.55 30.51 165.04 29.25 165.55"/><polygon class="cls-1" points="40.85 165.19 41.11 163.53 40.26 161.4 40.85 156.49 40.87 161.47 41.62 163.12 43.06 162.15 41.91 160.85 41.96 157.06 42.32 160.83 43.74 162.25 41.79 163.6 41.45 164.81 40.85 165.19"/><polygon class="cls-1" points="53.04 163.77 51.38 162.47 50.85 160.79 47.89 158.21 47.83 154.13 48.21 158.06 51.32 160.18 51.83 161.7 51.94 159.55 50.83 157.89 51.96 155.23 51.28 157.79 52.43 159.68 52.47 161.64 53.57 159.91 53.62 157.7 54.11 160.3 52.32 162.51 53.34 163.4 53.04 163.77"/><ellipse class="cls-1" cx="87.51" cy="32.9" rx="34.54" ry="32.9"/><polygon class="cls-1" points="63.82 54.99 60.69 38.74 54.94 32.23 50.05 38.35 52.59 55.44 62.12 60.45 63.82 54.99"/><polygon class="cls-1" points="112.74 53.1 110.52 67.8 91.84 77.7 71.28 77.7 59.73 69.96 57.21 57.14 112.74 53.1"/><path class="cls-16" d="M53.58,33.91l1.51,27.88,22,15.39,7.27-.1L110,65.66l3.46-33.89c1.52-11.56-14.61-11.61-33.59,3.63C66.28,20.37,52.75,24.09,53.58,33.91Z"/><polygon class="cls-1" points="110.07 55.36 113.2 39.1 118.95 32.6 123.84 38.71 121.31 55.8 111.78 60.81 110.07 55.36"/><path class="cls-1" d="M65.52,62.13c4.66,4.5,5.92,10.74,2.82,13.94s-5.68,5.75-14-2.35C46.55,66.19,48.4,63,51.5,59.79S60.87,57.64,65.52,62.13Z"/><ellipse class="cls-5" cx="57.74" cy="70.51" rx="3.91" ry="10.83" transform="translate(-33.08 63.01) rotate(-45.97)"/><polygon class="cls-1" points="71.62 77.11 55.09 61.79 54.14 56.76 58.62 52.91 60.04 56.38 68.32 58.15 74.27 51.49 84.06 51.49 92.41 58.49 101.98 56.38 104 52.79 109.1 56.44 107.49 66.13 88.71 77.23 71.62 77.11"/><polyline class="cls-9" points="69.28 69.28 71.75 66.08 73.52 66.08 76.55 62.09 81.53 62.09 86.91 66.08 88.84 66.08 92.13 70.05"/><path class="cls-1" d="M96.16,60.79c-4.65,4.5-4.67,12-1.58,15.18s8.14.91,12.79-3.59,7.15-9.5,4.06-12.7S100.82,56.3,96.16,60.79Z"/><ellipse class="cls-5" cx="103.69" cy="68.69" rx="10.83" ry="4.87" transform="translate(-18.6 91.37) rotate(-44.03)"/><polygon class="cls-1" points="55.9 46.5 70.06 47.91 72.18 52.34 57.77 52.55 55.14 49.53 55.9 46.5"/><g class="cls-17"><ellipse class="cls-18" cx="70.52" cy="48.57" rx="1.74" ry="5.35"/></g><polygon class="cls-1" points="105.62 46.5 89.06 47.91 86.72 52.34 103.56 52.55 106.45 49.53 105.62 46.5"/><g class="cls-19"><ellipse class="cls-18" cx="100.24" cy="47.32" rx="1.74" ry="5.35"/></g><polygon class="cls-1" points="55.85 43.14 57.66 39.41 72.06 46.01 57.56 36.23 55.85 43.14"/><polygon class="cls-1" points="86.85 46.72 106.1 40.16 108.52 45.01 107.41 36.33 86.85 46.72"/><ellipse class="cls-5" cx="110.63" cy="28.5" rx="1.43" ry="2.81" transform="translate(-1.24 51.66) rotate(-26.14)"/><ellipse class="cls-5" cx="55.54" cy="30.41" rx="2.37" ry="0.86" transform="translate(3.78 66.87) rotate(-63.86)"/><path class="cls-1" d="M94.45.66c13.45,1.43,23,5.38,32.9,15.63l3.91,11.57s-9.73-1.26-10.07,6.4C121.19,34.26,101.54,3.2,94.45.66Z"/><path class="cls-5" d="M116.79,29.92l-.2-.59c-.13-.41-.24-.78-.32-1.11s-.13-.69-.17-1-.06-.79-.08-1.27L116,24.16a4.7,4.7,0,0,0,0-.5c0-.18-.07-.36-.11-.54l-.15-.56-.18-.56c-.17-.51-.31-.9-.41-1.15a2.25,2.25,0,0,0-.27-.5.33.33,0,0,0-.25-.13.16.16,0,0,0-.17.13,1.49,1.49,0,0,0,.06.53c.06.27.18.68.36,1.22l.46,1.38h-.63l-.25-.75c-.25-.76-.45-1.41-.58-1.94a3,3,0,0,1-.12-1.21.51.51,0,0,1,.57-.42.94.94,0,0,1,.69.38,4.26,4.26,0,0,1,.61,1,15.81,15.81,0,0,1,.58,1.52c.12.35.21.68.29,1a8.46,8.46,0,0,1,.18.87,8.08,8.08,0,0,1,.08.86l.08,1.74c0,.4,0,.73.06,1a6.19,6.19,0,0,0,.1.7c0,.21.12.46.22.75h1.19l.31.94Z"/><path class="cls-5" d="M120.31,30a1.24,1.24,0,0,1-1-.7,10.17,10.17,0,0,1-1-2.22l-.18-.54h.61l.17.49c.16.48.29.86.4,1.14a2.61,2.61,0,0,0,.32.6A.4.4,0,0,0,120,29c.13,0,.19-.06.21-.2a2.1,2.1,0,0,0-.1-.64c-.08-.3-.2-.69-.36-1.16a12.83,12.83,0,0,0-.47-1.28,2.34,2.34,0,0,0-.38-.66.53.53,0,0,0-.4-.2h-.16l-.33-1h.15a.28.28,0,0,0,.28-.15,1,1,0,0,0,0-.56c-.06-.27-.17-.67-.34-1.19a9.82,9.82,0,0,0-.42-1.09,1.69,1.69,0,0,0-.3-.5.38.38,0,0,0-.26-.13.16.16,0,0,0-.17.15,1.32,1.32,0,0,0,0,.53c.06.25.16.61.31,1.06l.09.26h-.63l-.11-.33a7.72,7.72,0,0,1-.46-2.06c0-.44.19-.67.57-.67a1.31,1.31,0,0,1,1,.7,8.46,8.46,0,0,1,.93,2.08,8.46,8.46,0,0,1,.38,1.53,1,1,0,0,1-.15.85,2,2,0,0,1,.53.57,7.41,7.41,0,0,1,.49.94c.16.36.3.74.44,1.16a8.55,8.55,0,0,1,.52,2.29C120.9,29.79,120.7,30,120.31,30Z"/></g></svg>