<svg xmlns="http://www.w3.org/2000/svg" viewBox="0 0 256.44 139.83"><defs><style>.cls-1,.cls-3{fill:#2c334c;}.cls-2{fill:#fff;}.cls-3{stroke:#fff;stroke-miterlimit:10;stroke-width:2px;}</style></defs><g id="Camada_3" data-name="Camada 3"><polygon class="cls-1" points="53.53 4.89 204.68 4.89 129.1 135.79 53.53 4.89"/><path class="cls-2" d="M202.94,5.89,129.1,133.79,55.26,5.89H202.94m3.47-2H51.79l77.31,133.9L206.41,3.89Z"/><polygon class="cls-1" points="140.97 138.83 176.83 76.72 212.69 138.83 140.97 138.83"/><path class="cls-2" d="M176.83,78.72,211,137.83H142.7l34.13-59.11m0-4-37.6,65.11h75.19L176.83,74.72Z"/><polygon class="cls-1" points="182.99 67.3 218.85 5.19 254.71 67.3 182.99 67.3"/><path class="cls-2" d="M218.85,7.19,253,66.3H184.72L218.85,7.19m0-4L181.25,68.3h75.19L218.85,3.19Z"/><polygon class="cls-1" points="43.75 138.83 79.61 76.72 115.47 138.83 43.75 138.83"/><path class="cls-2" d="M79.61,78.72l34.13,59.11H45.48L79.61,78.72m0-4L42,139.83h75.19L79.61,74.72Z"/><polygon class="cls-1" points="1.73 67.3 37.59 5.19 73.46 67.3 1.73 67.3"/><path class="cls-2" d="M37.59,7.19,71.72,66.3H3.46L37.59,7.19m0-4L0,68.3H75.19L37.59,3.19Z"/><circle class="cls-3" cx="130.36" cy="59.28" r="42.83"/><circle class="cls-2" cx="130.36" cy="59.28" r="28.66"/><circle class="cls-3" cx="96.97" cy="25.89" r="24.89"/><circle class="cls-2" cx="97.29" cy="26.21" r="15.07"/></g></svg>